<?xml version="1.0" standalone="no"?>
<!DOCTYPE svg PUBLIC "-//W3C//DTD SVG 20010904//EN"
 "http://www.w3.org/TR/2001/REC-SVG-20010904/DTD/svg10.dtd">
<svg version="1.0" xmlns="http://www.w3.org/2000/svg"
 width="83.000000pt" height="83.000000pt" viewBox="0 0 83.000000 83.000000"
 preserveAspectRatio="xMidYMid meet">
<metadata>
Created by potrace 1.11, written by Peter Selinger 2001-2013
</metadata>
<g transform="translate(0.000000,83.000000) scale(0.100000,-0.100000)"
fill="#000000" stroke="none">
<path d="M313 722 c-34 -31 -97 -89 -140 -129 -158 -144 -173 -159 -173 -171
0 -7 6 -13 13 -13 12 -1 53 -5 90 -8 16 -1 17 -16 16 -167 0 -91 3 -169 6
-172 3 -4 137 -7 296 -7 226 0 293 2 301 12 6 8 8 16 5 20 -4 3 -134 7 -289 7
l-283 1 0 165 c0 91 -4 170 -8 177 -4 6 -19 10 -33 7 -36 -7 -51 6 -28 23 20
15 146 128 233 210 31 29 62 53 68 53 7 0 23 -9 35 -19 13 -10 66 -54 118 -97
101 -84 135 -113 180 -156 l29 -27 -47 -3 -47 -3 -3 -123 c-1 -67 -6 -122 -10
-123 -42 -6 -150 -3 -159 4 -6 4 -10 17 -8 28 2 11 0 30 -4 42 -6 16 -1 35 20
73 41 73 36 132 -16 180 -68 63 -157 33 -190 -62 -14 -41 -7 -73 27 -129 10
-16 18 -40 18 -52 0 -12 6 -23 13 -26 9 -3 9 -7 -1 -19 -10 -12 -9 -18 2 -28
9 -6 20 -9 25 -6 5 4 12 2 15 -2 3 -5 -7 -9 -22 -8 -18 1 -27 -4 -27 -14 0
-13 26 -15 175 -15 l175 0 2 118 c1 65 4 122 8 125 4 4 25 7 48 8 69 2 77 3
77 15 0 7 -8 19 -18 28 -107 93 -156 135 -271 230 -74 61 -139 111 -145 111
-6 0 -39 -26 -73 -58z m172 -303 c2 -33 -31 -109 -48 -109 -4 0 0 11 9 25 26
40 34 90 17 122 -13 26 -13 27 3 12 9 -9 17 -32 19 -50z m-48 -134 c0 -8 -4
-15 -9 -15 -10 0 -11 14 -1 23 9 10 10 9 10 -8z m-1 -107 c3 -4 -1 -5 -10 -4
-8 1 -18 5 -22 8 -3 4 1 5 10 4 8 -1 18 -5 22 -8z"/>
</g>
</svg>
