<svg xmlns="http://www.w3.org/2000/svg" viewBox="0 0 15.97 19">
  <defs>
    <style>
      .cls-1 {
        fill: #333;
      }
    </style>
  </defs>
  <title>Ресурс 2</title>
  <g id="Слой_2" data-name="Слой 2">
    <g id="Слой_1-2" data-name="Слой 1">
      <path class="cls-1" d="M15.92,16l-1.37-2.27a6.69,6.69,0,0,1-1-3.46v-2A5.56,5.56,0,0,0,9.58,3V1.58a1.6,1.6,0,0,0-3.2,0V3a5.56,5.56,0,0,0-4,5.31v2a6.69,6.69,0,0,1-1,3.46L.06,16a.39.39,0,0,0,0,.4.4.4,0,0,0,.35.2H15.57a.4.4,0,0,0,.35-.2A.39.39,0,0,0,15.92,16ZM8,19a2.79,2.79,0,0,0,2.52-1.58h-5A2.79,2.79,0,0,0,8,19Z"/>
    </g>
  </g>
</svg>
