<svg xmlns="http://www.w3.org/2000/svg" viewBox="0 0 37 37">
  <defs>
    <style>
      .cls-1 {
        fill: #fcb22d;
      }
    </style>
  </defs>
  <title>Ресурс 11</title>
  <g id="Слой_2" data-name="Слой 2">
    <g id="Слой_1-2" data-name="Слой 1">
      <path class="cls-1" d="M36.38,0H.62a.62.62,0,0,0,0,1.23H3.08V3.08a.62.62,0,0,0,.62.62H7.4v6.78H6.17a.62.62,0,0,0-.62.62v5.26a.64.64,0,0,1-.29.52,4.91,4.91,0,0,0-2.17,4.24A5,5,0,0,0,7.91,25.9H8a4.93,4.93,0,0,0,2.75-9,.62.62,0,0,1-.28-.52V11.1a.62.62,0,0,0-.62-.62H8.63V3.7h9.25V21.58H16.65a.62.62,0,0,0-.62.62v5.26a.64.64,0,0,1-.29.52,4.91,4.91,0,0,0-2.17,4.24A5,5,0,0,0,18.39,37h.11a4.93,4.93,0,0,0,2.75-9,.62.62,0,0,1-.28-.51V22.2a.62.62,0,0,0-.62-.62H19.12V3.7h9.25V14.18H27.13a.62.62,0,0,0-.62.62v5.26a.64.64,0,0,1-.29.52,4.91,4.91,0,0,0-2.17,4.24,5,5,0,0,0,4.82,4.78H29a4.93,4.93,0,0,0,2.75-9,.62.62,0,0,1-.28-.51V14.8a.62.62,0,0,0-.62-.62H29.6V3.7h3.7a.62.62,0,0,0,.62-.62V1.23h2.47a.62.62,0,0,0,0-1.23ZM10.08,17.9a3.7,3.7,0,0,1,.52,5.71,3.59,3.59,0,0,1-2.67,1.05,3.74,3.74,0,0,1-3.62-3.58A3.68,3.68,0,0,1,5.94,17.9a1.87,1.87,0,0,0,.8-1.25H9.29A1.86,1.86,0,0,0,10.08,17.9Zm-.83-6.18v3.7H6.78v-3.7ZM20.57,29a3.7,3.7,0,0,1,.52,5.71,3.61,3.61,0,0,1-2.67,1.05,3.74,3.74,0,0,1-3.62-3.58A3.68,3.68,0,0,1,16.43,29a1.87,1.87,0,0,0,.8-1.25h2.54A1.86,1.86,0,0,0,20.57,29Zm-.83-6.18v3.7H17.27v-3.7ZM31,21.6a3.7,3.7,0,0,1,.52,5.71,3.62,3.62,0,0,1-2.67,1.05,3.74,3.74,0,0,1-3.62-3.58,3.68,3.68,0,0,1,1.63-3.18,1.87,1.87,0,0,0,.8-1.25h2.54A1.86,1.86,0,0,0,31,21.6Zm-.83-6.18v3.7H27.75v-3.7ZM32.68,2.47H4.32V1.23H32.68Z"/>
    </g>
  </g>
</svg>
