<svg xmlns="http://www.w3.org/2000/svg" viewBox="0 0 20 17">
      <path class="cls-2" d="M19.82,5.43a.83.83,0,0,0-.66-.33H14.28l3-3.71A.86.86,0,0,0,17.2.2.82.82,0,0,0,16,.31L12.11,5.1H7.89L4,.31A.82.82,0,0,0,2.8.2a.86.86,0,0,0-.11,1.2l3,3.71H.83a.83.83,0,0,0-.66.33A.86.86,0,0,0,0,6.16l2.5,10.2a.84.84,0,0,0,.81.64H16.67a.84.84,0,0,0,.81-.64L20,6.16A.86.86,0,0,0,19.82,5.43ZM6,14.44H5.83A.84.84,0,0,1,5,13.74l-.83-5.1a.85.85,0,0,1,.68-1,.84.84,0,0,1,1,.7l.83,5.1A.85.85,0,0,1,6,14.44Zm4.86-.84a.83.83,0,1,1-1.67,0V8.5a.83.83,0,1,1,1.67,0Zm5-5L15,13.74a.84.84,0,0,1-.82.71H14a.85.85,0,0,1-.69-1l.83-5.1a.83.83,0,0,1,1-.7A.85.85,0,0,1,15.82,8.64Z"/>
</svg>
