<svg xmlns="http://www.w3.org/2000/svg" viewBox="0 0 92 58">
  <defs>
    <style>
      .cls-1 {
        fill: #fcb22d;
      }
    </style>
  </defs>
  <title>Ресурс 1</title>
  <g id="Слой_2" data-name="Слой 2">
    <g id="Слой_1-2" data-name="Слой 1">
      <path class="cls-1" d="M7,0A7,7,0,0,0,0,7V51a7,7,0,0,0,7,7H85a7,7,0,0,0,7-7V7a7,7,0,0,0-7-7ZM7,4H85a3,3,0,0,1,3,3v3H4V7A3,3,0,0,1,7,4ZM4,14H88v6H4ZM4,24H88V51a3,3,0,0,1-3,3H7a3,3,0,0,1-3-3Zm56,8a8,8,0,0,0,0,16,8,8,0,0,0,5-1.78A7.93,7.93,0,0,0,70,48a8,8,0,1,0-5-14.25A8,8,0,0,0,60,32Zm0,4a4,4,0,1,1-4,4A4,4,0,0,1,60,36Zm10,0a4,4,0,1,1-2.59,7A7.83,7.83,0,0,0,68,40a8,8,0,0,0-.59-3A4,4,0,0,1,70,36Z"/>
    </g>
  </g>
</svg>
