<svg xmlns="http://www.w3.org/2000/svg" viewBox="0 0 17 17">
  <defs>
    <style>
      .cls-1 {
        fill: #333;
      }
    </style>
  </defs>
  <title>Ресурс 1</title>
  <g id="Слой_2" data-name="Слой 2">
    <g id="Слой_1-2" data-name="Слой 1">
      <path class="cls-1" d="M7.19,0H.65A.65.65,0,0,0,0,.65V7.19a.65.65,0,0,0,.65.65H7.19a.65.65,0,0,0,.65-.65V.65A.65.65,0,0,0,7.19,0Zm9.15,0H9.81a.65.65,0,0,0-.65.65V7.19a.65.65,0,0,0,.65.65h6.54A.65.65,0,0,0,17,7.19V.65A.65.65,0,0,0,16.35,0ZM7.19,9.15H.65A.65.65,0,0,0,0,9.81v6.54A.65.65,0,0,0,.65,17H7.19a.65.65,0,0,0,.65-.65V9.81A.65.65,0,0,0,7.19,9.15Zm9.15,0H9.81a.65.65,0,0,0-.65.65v6.54a.65.65,0,0,0,.65.65h6.54a.65.65,0,0,0,.65-.65V9.81A.65.65,0,0,0,16.35,9.15Z"/>
    </g>
  </g>
</svg>
