<svg xmlns="http://www.w3.org/2000/svg" viewBox="0 0 36 38">
  <defs>
    <style>
      .cls-1 {
        fill: #fcb22d;
      }
    </style>
  </defs>
  <title>Ресурс 10</title>
  <g id="Слой_2" data-name="Слой 2">
    <g id="Слой_1-2" data-name="Слой 1">
      <path class="cls-1" d="M34.26,19.49a1.13,1.13,0,0,1,0-1l1.4-2.9a3.32,3.32,0,0,0-1.41-4.38L31.44,9.72a1.11,1.11,0,0,1-.57-.8l-.55-3.18A3.26,3.26,0,0,0,26.64,3l-3.15.45a1.09,1.09,0,0,1-.92-.3L20.27.94a3.23,3.23,0,0,0-4.55,0L13.44,3.18a1.09,1.09,0,0,1-.92.3L9.36,3A3.26,3.26,0,0,0,5.68,5.74L5.13,8.92a1.11,1.11,0,0,1-.57.8L1.74,11.23A3.32,3.32,0,0,0,.34,15.61l1.4,2.9a1.13,1.13,0,0,1,0,1l-1.4,2.9a3.32,3.32,0,0,0,1.41,4.38l2.81,1.51a1.11,1.11,0,0,1,.57.8l.55,3.18A3.27,3.27,0,0,0,8.89,35a3.3,3.3,0,0,0,.47,0l3.15-.45a1.09,1.09,0,0,1,.92.3l2.29,2.24a3.23,3.23,0,0,0,4.55,0l2.29-2.24a1.09,1.09,0,0,1,.92-.3l3.15.45a3.26,3.26,0,0,0,3.68-2.71l.55-3.18a1.11,1.11,0,0,1,.57-.8l2.81-1.51a3.32,3.32,0,0,0,1.41-4.38Zm-1,5.34-2.81,1.51a3.29,3.29,0,0,0-1.69,2.35l-.55,3.18a1.1,1.1,0,0,1-1.24.92l-3.15-.45a3.22,3.22,0,0,0-2.73.9l-2.29,2.24a1.09,1.09,0,0,1-1.54,0l-2.29-2.24a3.22,3.22,0,0,0-2.27-.93,3.32,3.32,0,0,0-.47,0l-3.15.45a1.1,1.1,0,0,1-1.24-.92L7.26,28.7a3.29,3.29,0,0,0-1.69-2.35L2.76,24.84a1.12,1.12,0,0,1-.48-1.48l1.4-2.9a3.33,3.33,0,0,0,0-2.91l-1.4-2.9a1.12,1.12,0,0,1,.48-1.48l2.81-1.51A3.29,3.29,0,0,0,7.26,9.3l.55-3.18A1.1,1.1,0,0,1,9.05,5.2l3.15.45a3.22,3.22,0,0,0,2.73-.9l2.29-2.24a1.09,1.09,0,0,1,1.54,0l2.29,2.24a3.22,3.22,0,0,0,2.73.9l3.15-.45a1.1,1.1,0,0,1,1.24.92l.55,3.18a3.29,3.29,0,0,0,1.69,2.35l2.81,1.51a1.12,1.12,0,0,1,.48,1.48l-1.4,2.9a3.33,3.33,0,0,0,0,2.91l1.4,2.9A1.12,1.12,0,0,1,33.24,24.84ZM25.9,11a1.07,1.07,0,0,0-1.53,0L10.09,25.46a1.11,1.11,0,0,0,0,1.55,1.07,1.07,0,0,0,1.53,0L25.9,12.54A1.11,1.11,0,0,0,25.9,11ZM13.67,17.17a4,4,0,1,0-4-4A4,4,0,0,0,13.67,17.17Zm0-5.84a1.83,1.83,0,1,1-1.8,1.83A1.82,1.82,0,0,1,13.67,11.33Zm8.66,9.5a4,4,0,1,0,4,4A4,4,0,0,0,22.33,20.83Zm0,5.84a1.83,1.83,0,1,1,1.8-1.83A1.82,1.82,0,0,1,22.33,26.67Z"/>
    </g>
  </g>
</svg>
