<svg xmlns="http://www.w3.org/2000/svg" viewBox="0 0 21.95 21.96">
  <defs>
    <style>
      .cls-1 {
        fill: #fff;
      }
    </style>
  </defs>
  <title>Ресурс 3</title>
  <g id="Слой_2" data-name="Слой 2">
    <g id="Слой_1-2" data-name="Слой 1">
      <path class="cls-1" d="M21.55.4a1.36,1.36,0,0,0-1.93,0L11,9,2.33.4A1.36,1.36,0,0,0,.4,2.33L9,11,.4,19.62a1.36,1.36,0,0,0,0,1.93,1.37,1.37,0,0,0,1,.4,1.33,1.33,0,0,0,1-.4L11,12.91l8.65,8.65a1.37,1.37,0,0,0,1,.4,1.31,1.31,0,0,0,1-.4,1.36,1.36,0,0,0,0-1.93L12.91,11l8.65-8.65A1.36,1.36,0,0,0,21.55.4Z"/>
    </g>
  </g>
</svg>
