<svg xmlns="http://www.w3.org/2000/svg" viewBox="0 0 43 29">
  <defs>
    <style>
      .cls-1 {
        fill: #fcb22d;
      }
    </style>
  </defs>
  <title>Ресурс 9</title>
  <g id="Слой_2" data-name="Слой 2">
    <g id="Слой_1-2" data-name="Слой 1">
      <path class="cls-1" d="M35.15,21.2a4,4,0,0,0-2.8,1.14,3.82,3.82,0,0,0,0,5.51A4,4,0,0,0,35.15,29a3.9,3.9,0,1,0,0-7.8Zm0,6.06a2.17,2.17,0,1,1,0-4.33,2.17,2.17,0,0,1,0,4.33Zm1-19A.85.85,0,0,0,35.58,8H31.09a.87.87,0,0,0-.88.87V16a.87.87,0,0,0,.88.87h7.13A.87.87,0,0,0,39.1,16V11.21a.86.86,0,0,0-.29-.64Zm1.17,6.88H32V9.72h3.27l2.1,1.87ZM13.77,21.2A4,4,0,0,0,11,22.35a3.82,3.82,0,0,0,0,5.51A4,4,0,0,0,13.77,29a3.9,3.9,0,1,0,0-7.8Zm0,6.06a2.17,2.17,0,1,1,0-4.33,2.17,2.17,0,0,1,0,4.33Zm-5.84-5H6.17V20a.88.88,0,0,0-1.75,0v3.17A.87.87,0,0,0,5.3,24H7.93a.87.87,0,1,0,0-1.73Zm4.44-4.72a.87.87,0,0,0-.88-.87H.88a.87.87,0,1,0,0,1.73H11.5A.87.87,0,0,0,12.37,17.55ZM2.65,14.42l10.62.06a.88.88,0,0,0,.88-.86.86.86,0,0,0-.87-.87L2.67,12.69h0a.87.87,0,1,0,0,1.73Zm1.79-3.93H15.06a.87.87,0,1,0,0-1.73H4.44a.87.87,0,1,0,0,1.73ZM42.68,9.32,36.41,4.18a.87.87,0,0,0-.56-.2H28.47V.87A.87.87,0,0,0,27.6,0H5.3a.87.87,0,0,0-.88.87V7.21a.88.88,0,0,0,1.75,0V1.73H26.73V22.27H19.55a.87.87,0,1,0,0,1.73H30.24a.87.87,0,1,0,0-1.73H28.48V5.72h7.06l5.71,4.68-.06,11.86h-.91a.87.87,0,1,0,0,1.73h1.78a.87.87,0,0,0,.88-.86L43,10A.91.91,0,0,0,42.68,9.32Z"/>
    </g>
  </g>
</svg>
