<svg xmlns="http://www.w3.org/2000/svg" viewBox="0 0 90 57">
  <defs>
    <style>
      .cls-1 {
        fill: #858585;
      }
    </style>
  </defs>
  <title>Ресурс 1</title>
  <g id="Слой_2" data-name="Слой 2">
    <g id="Слой_1-2" data-name="Слой 1">
      <g>
        <path class="cls-1" d="M74.25,41.7a7.65,7.65,0,1,0,7.65,7.65A7.66,7.66,0,0,0,74.25,41.7Zm0,9.9a2.25,2.25,0,1,1,2.25-2.25A2.25,2.25,0,0,1,74.25,51.6Z"/>
        <path class="cls-1" d="M73.52,9.9H60.3a1.8,1.8,0,0,0-1.8,1.8V46.8a1.8,1.8,0,0,0,1.8,1.8h1.91A1.79,1.79,0,0,0,64,47.07,9.92,9.92,0,0,1,74.25,38.3,9.92,9.92,0,0,1,84.5,47.07a1.79,1.79,0,0,0,1.8,1.53H88.2A1.8,1.8,0,0,0,90,46.8V29.25a1.8,1.8,0,0,0-.42-1.15L74.9,10.54A1.8,1.8,0,0,0,73.52,9.9ZM62.1,24.3v-9a1.8,1.8,0,0,1,1.8-1.8h7.93a1.8,1.8,0,0,1,1.38.65l7.5,9a1.8,1.8,0,0,1-1.38,3H63.9A1.8,1.8,0,0,1,62.1,24.3Z"/>
        <path class="cls-1" d="M1.8,0A1.8,1.8,0,0,0,0,1.8v45a1.8,1.8,0,0,0,1.8,1.8H6.41a1.8,1.8,0,0,0,1.8-1.53A9.92,9.92,0,0,1,18.45,38.3,9.92,9.92,0,0,1,28.7,47.07a1.79,1.79,0,0,0,1.79,1.53H53.1a1.8,1.8,0,0,0,1.8-1.8V1.8A1.8,1.8,0,0,0,53.1,0ZM35,10.49a1.5,1.5,0,0,1,1.08.46l5,5A1.5,1.5,0,0,1,40,18.51H15a1.5,1.5,0,1,1,0-3H36.39l-2.44-2.44a1.5,1.5,0,0,1,1-2.58Zm-20,10H40a1.5,1.5,0,0,1,0,3H18.61l2.44,2.44a1.5,1.5,0,1,1-2.12,2.12h0l-5-5A1.5,1.5,0,0,1,15,20.49Z"/>
        <path class="cls-1" d="M18.45,41.7a7.65,7.65,0,1,0,7.65,7.65A7.66,7.66,0,0,0,18.45,41.7Zm0,9.9a2.25,2.25,0,1,1,2.25-2.25A2.25,2.25,0,0,1,18.45,51.6Z"/>
      </g>
    </g>
  </g>
</svg>
