<svg xmlns="http://www.w3.org/2000/svg" viewBox="0 0 16 15.02">
  <defs>
    <style>
      .cls-1 {
        fill: #333;
      }
    </style>
  </defs>
  <title>Ресурс 6</title>
  <g id="Слой_2" data-name="Слой 2">
    <g id="Слой_1-2" data-name="Слой 1">
      <path class="cls-1" d="M2.61,0H.52A.52.52,0,0,0,0,.51v9.2a.52.52,0,0,0,.52.51H2.61a.52.52,0,0,0,.52-.51V.51A.52.52,0,0,0,2.61,0ZM15.3,7.4a1.53,1.53,0,0,0-.52-2,1.53,1.53,0,0,0-.52-2A1.55,1.55,0,0,0,12.89,1H4.18V9.2s2.52,2.23,3.33,3a3.11,3.11,0,0,1,.89,1.66,2.08,2.08,0,0,0,.17.72.87.87,0,0,0,.53.39,1.84,1.84,0,0,0,1.21-.17,2.62,2.62,0,0,0,.92-3.11l-.55-1.47s3.94,0,4,0A1.55,1.55,0,0,0,15.3,7.4Z"/>
    </g>
  </g>
</svg>
