<svg xmlns="http://www.w3.org/2000/svg" viewBox="0 0 18 17">
      <path class="cls-2" d="M16.55,0H8A1.44,1.44,0,0,0,6.61,1.45V4.34a.47.47,0,1,0,.95,0V1.45A.49.49,0,0,1,8,1h7.17L11.58,2.55a2.09,2.09,0,0,0-1.14,1.79v9.12H8.07A.49.49,0,0,1,7.59,13V10.09a.47.47,0,1,0-.95,0V13a1.44,1.44,0,0,0,1.42,1.44h2.37v1.45a1.09,1.09,0,0,0,.47,1,1,1,0,0,0,.56.17,1.08,1.08,0,0,0,.5-.11l4.88-2.12A2.09,2.09,0,0,0,18,13V1.45A1.46,1.46,0,0,0,16.55,0Z"/>
      <path class="cls-2" d="M7.9,6.89,5.05,4a.45.45,0,0,0-.67,0,.47.47,0,0,0,0,.68l2,2.07H.47a.48.48,0,0,0,0,1h6l-2,2.07a.47.47,0,0,0,0,.68.47.47,0,0,0,.67,0L7.93,7.57A.49.49,0,0,0,7.9,6.89Z"/>
</svg>
