<svg xmlns="http://www.w3.org/2000/svg" viewBox="0 0 61.57 54.4">
  <defs>
    <style>
      .cls-1 {
        fill: #fcb22d;
      }
    </style>
  </defs>
  <title>Ресурс 1</title>
  <g id="Слой_2" data-name="Слой 2">
    <g id="Слой_1-2" data-name="Слой 1">
      <path class="cls-1" d="M61.2,21.47c-1.08-1.46-3.54-2-6.41-1.29a9.3,9.3,0,0,0-1.39.42V0h-39V27.32c-1.07,1.06-2.82,2.74-4.38,4.21L8.2,29.71,0,37.93,16.5,54.4l8.19-8.2-2.44-2.44A1.76,1.76,0,0,1,23.5,43H41.78c2.37,0,11.58-9,11.66-9.12.94-1.06,6.52-8.22,7.89-11.42l.24-.52ZM38.4,2V6h-9V2Zm-22,0h11V8h13V2h11V21.69a11.36,11.36,0,0,0-3.28,3.89l-4.75,2.31a4.94,4.94,0,0,0-3-.89H32.62a7.92,7.92,0,0,1-1.5-1c-1.18-.91-2.5-2-3.86-2H20.85a8.73,8.73,0,0,0-4.45,1.69Zm.1,49.58L2.83,37.93,8.2,32.55l.36.35L10,34.32l9.52,9.53,1.43,1.43.93.92Zm35.44-19c-1.38,1.5-8.89,8.12-10.16,8.42H23.5a3.6,3.6,0,0,0-2.72,1.33L11.4,32.95l3.08-3,1.46-1.43c.21-.18.42-.38.66-.57a8,8,0,0,1,4.21-2h6.41c.67,0,1.8.89,2.62,1.53.2.17.41.32.6.47a3.77,3.77,0,0,0,2.1,1h7.82a2.66,2.66,0,0,1,2.28,1,2.53,2.53,0,0,1,.48,1.5A2.49,2.49,0,0,1,40.65,34H29.36v2h11a4.48,4.48,0,0,0,4.75-4.19q0-.15,0-.31a4.73,4.73,0,0,0-.26-1.5,2.6,2.6,0,0,0-.21-.51L47.78,28l1.83-.91.16-.28a10.52,10.52,0,0,1,1.66-2.44,7.3,7.3,0,0,1,3.85-2.24,5.76,5.76,0,0,1,3.94.19,82.2,82.2,0,0,1-7.28,10.23Z"/>
      <polygon class="cls-1" points="7.39 36.6 6.3 37.68 8.92 40.32 10.14 39.08 10.33 38.9 7.71 36.28 7.39 36.6"/>
      <rect class="cls-1" x="18.41" y="20" width="2" height="2"/>
      <rect class="cls-1" x="22.41" y="20" width="2" height="2"/>
      <rect class="cls-1" x="26.41" y="20" width="2" height="2"/>
    </g>
  </g>
</svg>
