<svg xmlns="http://www.w3.org/2000/svg" viewBox="0 0 20.02 13">
  <defs>
    <style>
      .cls-1 {
        fill: #333;
      }
    </style>
  </defs>
  <title>Ресурс 8</title>
  <g id="Слой_2" data-name="Слой 2">
    <g id="Слой_1-2" data-name="Слой 1">
      <path class="cls-1" d="M10,0C6.18,0,2.72,2.28.16,6a.93.93,0,0,0,0,1c2.56,3.71,6,6,9.85,6s7.29-2.28,9.85-6a.93.93,0,0,0,0-1C17.3,2.28,13.83,0,10,0Zm.27,11.08A4.41,4.41,0,0,1,5.81,6.2,4.42,4.42,0,0,1,9.73,1.92,4.41,4.41,0,0,1,14.21,6.8,4.44,4.44,0,0,1,10.28,11.08ZM10.16,9A2.37,2.37,0,0,1,7.75,6.34,2.39,2.39,0,0,1,9.86,4a2.37,2.37,0,0,1,2.41,2.62A2.39,2.39,0,0,1,10.16,9Z"/>
    </g>
  </g>
</svg>
