<svg xmlns="http://www.w3.org/2000/svg" viewBox="0 0 90 78.93">
  <defs>
    <style>
      .cls-1 {
        fill: #fcb22d;
      }
    </style>
  </defs>
  <title>Ресурс 1</title>
  <g id="Слой_2" data-name="Слой 2">
    <g id="Слой_1-2" data-name="Слой 1">
      <g>
        <path class="cls-1" d="M45,10A26.15,26.15,0,1,0,71.15,36.11,26.18,26.18,0,0,0,45,10Zm0,48.29A22.15,22.15,0,1,1,67.15,36.11,22.17,22.17,0,0,1,45,58.26Z"/>
        <path class="cls-1" d="M77.26,52.57l-.1-.08A36.1,36.1,0,1,0,8.89,36.11a35.87,35.87,0,0,0,3.95,16.38l-.1.08L.59,64.73a2,2,0,0,0,1.24,3.41l8.24.73.73,8.24a2,2,0,0,0,3.41,1.24L25.83,66.69a36,36,0,0,0,38.34,0L75.8,78.34a2,2,0,0,0,3.41-1.24l.73-8.24,8.24-.73a2,2,0,0,0,1.24-3.41ZM14.4,72.48l-.5-5.64A2,2,0,0,0,12.08,65l-5.64-.5,8.47-8.47a36.39,36.39,0,0,0,7.61,8.29ZM12.89,36.11A32.11,32.11,0,1,1,45,68.22,32.15,32.15,0,0,1,12.89,36.11ZM77.92,65a2,2,0,0,0-1.81,1.81l-.5,5.64-8.12-8.14a36.41,36.41,0,0,0,7.61-8.29l8.47,8.47Z"/>
        <path class="cls-1" d="M58.31,24.16a2,2,0,0,0-2.79.47L42.21,43.27l-7.89-8.52a2,2,0,0,0-2.94,2.72l9.56,10.32a2,2,0,0,0,1.47.64h.13a2,2,0,0,0,1.5-.83L58.78,27A2,2,0,0,0,58.31,24.16Z"/>
      </g>
    </g>
  </g>
</svg>
