<svg xmlns="http://www.w3.org/2000/svg" viewBox="0 0 79.53 77.66">
  <defs>
    <style>
      .cls-1 {
        fill: #fff;
      }
    </style>
  </defs>
  <title>Ресурс 1</title>
  <g id="Слой_2" data-name="Слой 2">
    <g id="Слой_1-2" data-name="Слой 1">
      <g>
        <path class="cls-1" d="M44.13,53.87c-.14-1-.57-1.15-2-2s-1.43-1.36-1.56-2.2-.15-1.34-.83-1.35h0c-.69,0-.69.53-.83,1.35s-.14,1.37-1.57,2.2-1.85.95-2,2-1.28.84-1.28.84v7.11H45.41V54.71S44.28,54.92,44.13,53.87Z"/>
        <path class="cls-1" d="M39.63,43.66a4.88,4.88,0,1,0-4.88-4.88A4.87,4.87,0,0,0,39.63,43.66ZM39.8,39v.75h-.36v-.47l-.19.14-.15-.2.35-.27V35.56h.36v3.11l3-2.37.16.21"/>
        <path class="cls-1" d="M78.57,53.31V49.69a2.51,2.51,0,0,0-1.27.6A4.12,4.12,0,0,0,76.41,52a2.84,2.84,0,0,0-.72-1.69,2.06,2.06,0,0,0-1.44-.64V53.3H72.51V49.69a2.51,2.51,0,0,0-1.27.6A4.14,4.14,0,0,0,70.35,52a2.84,2.84,0,0,0-.72-1.69,2.07,2.07,0,0,0-1.45-.64V53.3H66.45V49.69a2.49,2.49,0,0,0-1.27.6A4.14,4.14,0,0,0,64.29,52a2.82,2.82,0,0,0-.72-1.69,2.06,2.06,0,0,0-1.44-.64V53.3H60.4V49.69a2.51,2.51,0,0,0-1.27.6A4.13,4.13,0,0,0,58.24,52a2.83,2.83,0,0,0-.72-1.69,2.06,2.06,0,0,0-1.44-.64V53.3h-.82l-.5-3.78-1.35,3.73L50.94,52l-2,1.21-.46-12.64L47.58,43H46.8s.22-6.87.22-8.91.11-5.43-.45-6.88-1-2.91-1-2.91L45,26.08l-.9-.1L40.63,9.6l-.45-.49L39.9,7.58l3.22,2.33L41.89,6.13l3.22-2.35h-4L39.89,0,38.67,3.79h-4l3.23,2.35L36.68,9.91l2.87-2.08-.24,1.28-.44.49L35.39,26l-.9.1-.56-1.74s-.45,1.46-1,2.91-.45,4.84-.45,6.88S32.7,43,32.7,43h-.79L31,40.61l.07,12.87L28.54,52l-1.7,1.55-2.12-4.07-.5,3.78h-.78V49.69a2.52,2.52,0,0,0-1.27.6A4.11,4.11,0,0,0,21.3,52a2.81,2.81,0,0,0-.72-1.69,2.05,2.05,0,0,0-1.44-.64V53.3H17.4V49.69a2.51,2.51,0,0,0-1.27.6A4.12,4.12,0,0,0,15.24,52a2.83,2.83,0,0,0-.72-1.69,2.06,2.06,0,0,0-1.44-.64V53.3H11.35V49.69a2.51,2.51,0,0,0-1.27.6A4.12,4.12,0,0,0,9.18,52a2.82,2.82,0,0,0-.72-1.69A2.05,2.05,0,0,0,7,49.69V53.3H5.29V49.69a2.52,2.52,0,0,0-1.27.6A4.15,4.15,0,0,0,3.13,52a2.8,2.8,0,0,0-.72-1.69A2.05,2.05,0,0,0,1,49.69V53.3H0V77.66H33.12V69.78s.87-3.25,6.41-3.25,6.94,3.25,6.94,3.25v7.89H79.53V53.31Zm-53.3,23h-.64V55.72h.64Zm5.3-18.8H26.86s0-1.56,0-2.17.44-.12.54-.84,1.12-1,1.31-1h0c.19.05,1.22.38,1.31,1s.56.22.53.84S30.57,57.48,30.57,57.48ZM16.69,59.13H14s0-1.12,0-1.56.31-.08.38-.6.8-.71.94-.75h0c.14,0,.88.27.94.75s.4.15.38.6S16.69,59.13,16.69,59.13Zm-6.33,0H7.7s0-1.12,0-1.56.31-.08.39-.6.8-.71.93-.75H9c.13,0,.88.27.94.75s.4.15.38.6S10.36,59.13,10.36,59.13Zm-5.9,0H1.8s0-1.12,0-1.56.31-.08.38-.6.8-.71.94-.75h0c.14,0,.88.27.94.75s.4.15.38.6S4.47,59.13,4.47,59.13Zm73.34,0H75.14s0-1.12,0-1.56.32-.08.39-.6.8-.71.93-.75h0c.14,0,.88.27.94.75s.4.15.38.6S77.8,59.13,77.8,59.13Zm-6.32,0H68.81s0-1.12,0-1.56.32-.08.39-.6.8-.71.93-.75h0c.13,0,.88.27.94.75s.4.15.38.6S71.48,59.13,71.48,59.13Zm-5.9,0H62.92s0-1.12,0-1.56.32-.08.39-.6.8-.71.94-.75h0c.13,0,.88.27.94.75s.4.15.38.6S65.58,59.13,65.58,59.13ZM45.17,27.32c.18-.65.32-1,.35-1.12v0c0,.1.17.48.36,1.13s.34.46.34,1.47c0,.8,0,2.42,0,3.06-.44-.07-.88-.14-1.33-.2,0-.74,0-2.13,0-2.86C44.84,27.79,45,28.1,45.17,27.32Zm-2.59-.39c.51.84.76.5.76,1.59,0,.76,0,2.22-.07,3-1-.1-2-.17-3-.19,0-.83-.06-2.13-.06-2.84,0-1.09.25-.75.76-1.59s.72-1.1.8-1.22v0A13.57,13.57,0,0,1,42.59,26.93Zm-2.26-16.7,2.57,16s-1-2.32-1.76-.91-1,.91-1,.91Zm-1.07,0,.22,16s-.22.5-1-.91-1.76.91-1.76.91ZM37,26.93a14,14,0,0,1,.8-1.22v0l0,0v0a14.58,14.58,0,0,1,.8,1.22c.51.84.76.5.76,1.59,0,.71,0,2-.06,2.83-1,0-2,.06-3,.15,0-.81-.06-2.23-.06-3C36.24,27.43,36.48,27.77,37,26.93Zm2.64,6.22A5.63,5.63,0,1,1,34,38.78,5.63,5.63,0,0,1,39.63,33.15Zm-6-5.83c.19-.65.32-1,.36-1.12v0s0,0,0,0v0c0,.1.17.48.36,1.13s.33.46.33,1.47c0,.71,0,2,0,2.8-.46.05-.9.12-1.33.18,0-.69,0-2.21,0-3C33.28,27.79,33.39,28.1,33.61,27.32Zm.85,37.62H32a6.7,6.7,0,0,0,0-.68c0-.18.29,0,.35-.25s.74-.31.87-.32h0c.12,0,.8.11.86.32s.37.07.34.25S34.46,64.94,34.46,64.94Zm4.15,0H36.17s0-.48,0-.68.29,0,.35-.25.74-.31.86-.32h0c.12,0,.81.11.85.32s.37.07.36.25A5.67,5.67,0,0,0,38.61,64.94Zm1-2.37H33.25V54.16a1.19,1.19,0,0,0,1.46-1c.17-1.23.65-1.36,2.27-2.35a2.9,2.9,0,0,0,1.78-2.6c.16-1,.16-1.59.94-1.61h0c.78,0,.78.64.94,1.61a2.9,2.9,0,0,0,1.78,2.6c1.62,1,2.11,1.12,2.27,2.35a1.19,1.19,0,0,0,1.46,1v8.42H39.6Zm3.15,2.37H40.32a6.14,6.14,0,0,0,0-.68c0-.18.29,0,.35-.25s.74-.31.86-.32h0c.13,0,.81.11.86.32s.37.07.35.25S42.76,64.94,42.76,64.94Zm4.15,0H44.47a6.7,6.7,0,0,0,0-.68c0-.18.29,0,.35-.25s.74-.31.87-.32h0c.13,0,.81.11.87.32s.37.07.35.25A6.41,6.41,0,0,0,46.91,64.94Zm6-9.64c0,.61,0,2.17,0,2.17H49.21s0-1.56,0-2.17.44-.12.53-.84,1.12-1,1.31-1h0c.19.05,1.22.38,1.31,1S53,54.68,52.92,55.3Zm1.81,21H54.1V55.72h.64Z"/>
      </g>
    </g>
  </g>
</svg>
