<svg xmlns="http://www.w3.org/2000/svg" viewBox="0 0 32 50">
      <path class="cls-2" d="M16,50a.62.62,0,0,1-.61-.62V37.75a.61.61,0,1,1,1.22,0V49.38A.62.62,0,0,1,16,50Zm14.26-5a.6.6,0,0,1-.47-.22L22.55,36a.63.63,0,0,1,.08-.88.6.6,0,0,1,.86.08L30.73,44a.63.63,0,0,1-.08.88A.6.6,0,0,1,30.26,45ZM1.74,45a.6.6,0,0,1-.39-.15A.63.63,0,0,1,1.27,44l7.25-8.8a.6.6,0,0,1,.86-.08.63.63,0,0,1,.08.88l-7.25,8.8A.6.6,0,0,1,1.74,45ZM16,34.26a6.08,6.08,0,0,1-5.17-2.92H.61A.62.62,0,0,1,0,30.72c0-7.9,6.85-14.35,15.39-14.65V.62a.61.61,0,1,1,1.22,0V16.08C25.15,16.37,32,22.83,32,30.72a.62.62,0,0,1-.61.62H21.17A6.08,6.08,0,0,1,16,34.26Zm-3.65-2.92a4.82,4.82,0,0,0,7.3,0Zm8.47-1.25h9.94C30.4,23,23.92,17.31,16,17.31S1.6,23,1.24,30.1ZM5.59,24.48a.6.6,0,0,1-.36-.12.63.63,0,0,1-.13-.87,16.59,16.59,0,0,1,4.53-3.73.6.6,0,0,1,.83.24.63.63,0,0,1-.24.85,15.66,15.66,0,0,0-4.14,3.37A.61.61,0,0,1,5.59,24.48Z"/>
</svg>
