<svg xmlns="http://www.w3.org/2000/svg" viewBox="0 0 44 45">
  <defs>
    <style>
      .cls-1, .cls-2 {
        fill: #fff;
      }

      .cls-1 {
        fill-opacity: 0;
      }

      .cls-2 {
        stroke: #fff;
        stroke-linecap: round;
        stroke-linejoin: round;
      }
    </style>
  </defs>
  <title>Ресурс 1</title>
  <g id="Слой_2" data-name="Слой 2">
    <g id="Слой_1-2" data-name="Слой 1">
      <rect class="cls-1" x="0.5" y="0.5" width="43" height="44"/>
      <rect class="cls-1" x="0.5" y="0.5" width="43" height="44"/>
      <rect class="cls-1" x="0.5" y="0.5" width="43" height="44"/>
      <rect class="cls-1" x="0.5" y="0.5" width="43" height="44"/>
      <rect class="cls-1" x="0.5" y="0.5" width="43" height="44"/>
      <rect class="cls-1" x="15.81" y="2.73" width="25.42" height="7.4"/>
      <path class="cls-2" d="M17.23,5.55a1.41,1.41,0,1,0-1.41-1.41A1.41,1.41,0,0,0,17.23,5.55Z"/>
      <path class="cls-2" d="M24.22,5.29a1.41,1.41,0,1,0-1.47,1.34A1.41,1.41,0,0,0,24.22,5.29Z"/>
      <path class="cls-2" d="M29.8,6.44a1.41,1.41,0,1,0-1.53,1.26A1.4,1.4,0,0,0,29.8,6.44Z"/>
      <path class="cls-2" d="M35.39,7.59a1.41,1.41,0,1,0-1.59,1.19A1.41,1.41,0,0,0,35.39,7.59Z"/>
      <path class="cls-2" d="M41,8.75a1.41,1.41,0,1,0-1.65,1.12A1.41,1.41,0,0,0,41,8.75Z"/>
      <rect class="cls-1" x="3.22" y="35.11" width="25.42" height="7.4"/>
      <path class="cls-2" d="M4.64,37.93a1.41,1.41,0,1,0-1.41-1.41A1.41,1.41,0,0,0,4.64,37.93Z"/>
      <path class="cls-2" d="M11.63,37.67A1.41,1.41,0,1,0,10.16,39,1.41,1.41,0,0,0,11.63,37.67Z"/>
      <path class="cls-2" d="M17.21,38.81a1.41,1.41,0,1,0-1.53,1.26A1.4,1.4,0,0,0,17.21,38.81Z"/>
      <path class="cls-2" d="M22.8,40a1.41,1.41,0,1,0-1.59,1.19A1.41,1.41,0,0,0,22.8,40Z"/>
      <path class="cls-2" d="M28.38,41.12a1.41,1.41,0,1,0-1.65,1.12A1.41,1.41,0,0,0,28.38,41.12Z"/>
      <rect class="cls-1" x="2.79" y="11.85" width="38.07" height="9.94"/>
      <path class="cls-2" d="M4.2,14.67a1.41,1.41,0,1,0-1.41-1.41A1.41,1.41,0,0,0,4.2,14.67Z"/>
      <path class="cls-2" d="M11.44,14.45A1.41,1.41,0,1,0,10,15.82,1.41,1.41,0,0,0,11.44,14.45Z"/>
      <path class="cls-2" d="M17.27,15.65A1.41,1.41,0,1,0,15.77,17,1.4,1.4,0,0,0,17.27,15.65Z"/>
      <path class="cls-2" d="M23.1,16.83a1.41,1.41,0,1,0-1.53,1.26A1.4,1.4,0,0,0,23.1,16.83Z"/>
      <path class="cls-2" d="M28.93,18a1.41,1.41,0,1,0-1.58,1.22A1.41,1.41,0,0,0,28.93,18Z"/>
      <path class="cls-2" d="M34.75,19.22a1.41,1.41,0,1,0-1.62,1.17A1.41,1.41,0,0,0,34.75,19.22Z"/>
      <path class="cls-2" d="M40.58,20.41a1.41,1.41,0,1,0-1.65,1.12A1.41,1.41,0,0,0,40.58,20.41Z"/>
      <rect class="cls-1" x="2.79" y="23.45" width="38.06" height="9.94"/>
      <path class="cls-2" d="M4.2,26.27a1.41,1.41,0,1,0-1.41-1.41A1.41,1.41,0,0,0,4.2,26.27Z"/>
      <path class="cls-2" d="M11.44,26.05A1.41,1.41,0,1,0,10,27.41,1.41,1.41,0,0,0,11.44,26.05Z"/>
      <path class="cls-2" d="M17.27,27.24a1.41,1.41,0,1,0-1.49,1.31A1.4,1.4,0,0,0,17.27,27.24Z"/>
      <path class="cls-2" d="M23.09,28.43a1.41,1.41,0,1,0-1.53,1.26A1.4,1.4,0,0,0,23.09,28.43Z"/>
      <path class="cls-2" d="M28.92,29.62a1.41,1.41,0,1,0-1.57,1.21A1.4,1.4,0,0,0,28.92,29.62Z"/>
      <path class="cls-2" d="M34.75,30.81A1.41,1.41,0,1,0,33.14,32,1.41,1.41,0,0,0,34.75,30.81Z"/>
      <path class="cls-2" d="M40.58,32a1.41,1.41,0,1,0-1.65,1.12A1.41,1.41,0,0,0,40.58,32Z"/>
      <path class="cls-2" d="M14,.5,12.89,6.44l29.46,5.69L43.5,6.19Z"/>
      <path class="cls-2" d="M1.66,32.87.51,38.81,30,44.5l1.15-5.94Z"/>
      <path class="cls-2" d="M1.65,9.69.5,15.63l41.85,8.08,1.15-5.94Z"/>
      <path class="cls-2" d="M1.65,21.29.5,27.22l41.85,8.08,1.15-5.94Z"/>
      <path class="cls-2" d="M42.35,12.13,18,12.85"/>
      <path class="cls-2" d="M27.14,9.19l-25.5.5"/>
      <path class="cls-2" d="M42.35,23.72,18,24.44"/>
      <path class="cls-2" d="M27.21,20.79l-25.56.5"/>
      <path class="cls-2" d="M42.36,35.31,18,36"/>
      <path class="cls-2" d="M27.15,32.37l-25.49.5"/>
    </g>
  </g>
</svg>
