<svg xmlns="http://www.w3.org/2000/svg" viewBox="0 0 16 14.98">
  <defs>
    <style>
      .cls-1 {
        fill: #333;
      }
    </style>
  </defs>
  <title>Ресурс 5</title>
  <g id="Слой_2" data-name="Слой 2">
    <g id="Слой_1-2" data-name="Слой 1">
      <path class="cls-1" d="M2.61,4.78H.52A.52.52,0,0,0,0,5.29v9.18A.52.52,0,0,0,.52,15H2.61a.52.52,0,0,0,.52-.51V5.29A.52.52,0,0,0,2.61,4.78Zm12.08,0c-.08,0-4,0-4,0l.55-1.47A2.61,2.61,0,0,0,10.3.21,1.84,1.84,0,0,0,9.09,0a.87.87,0,0,0-.53.39,2.07,2.07,0,0,0-.17.72A3.1,3.1,0,0,1,7.51,2.8c-.81.77-3.33,3-3.33,3V14h8.71a1.54,1.54,0,0,0,1.37-2.28,1.52,1.52,0,0,0,.52-2,1.52,1.52,0,0,0,.52-2A1.54,1.54,0,0,0,14.7,4.78Z"/>
    </g>
  </g>
</svg>
