<svg xmlns="http://www.w3.org/2000/svg" viewBox="0 0 78.12 86.03">
  <defs>
    <style>
      .cls-1 {
        fill: #333;
      }
    </style>
  </defs>
  <title>Ресурс 1</title>
  <g id="Слой_2" data-name="Слой 2">
    <g id="Слой_1-2" data-name="Слой 1">
      <path class="cls-1" d="M38.88,0A2,2,0,0,0,37.1,2V14a2,2,0,0,0,4,.06s0,0,0-.06V2a2,2,0,0,0-2-2h-.25ZM18.94,8a2,2,0,0,0-1.53,3.06l5,8A2,2,0,1,0,25.78,17l-5-8A2,2,0,0,0,18.94,8ZM59,8a2,2,0,0,0-1.59,1l-5,8a2,2,0,1,0,3.38,2.13l5-8A2,2,0,0,0,59,8ZM2.56,21a2,2,0,0,0-.84,3.75l10.41,6a2,2,0,0,0,2-3.47h0l-10.41-6A2,2,0,0,0,2.56,21Zm72.78,0a2,2,0,0,0-.87.28l-10.41,6a2,2,0,1,0,2,3.47h0l10.41-6A2,2,0,0,0,75.35,21ZM39.1,22c-12.15,0-22,9.43-22,21,0,11.34,10.43,18,11.84,27H37.1V47.47a4,4,0,0,1-2-3.44,4,4,0,0,1,8,0,4,4,0,0,1-2,3.44V70h8.16C50.67,61,61.1,54.38,61.1,43,61.1,31.46,51.25,22,39.1,22ZM1.91,42a2,2,0,1,0,.19,4h7a2,2,0,0,0,.06-4H1.91Zm67,0a2,2,0,1,0,.19,4h7a2,2,0,0,0,.06-4H68.91ZM13,57a2,2,0,0,0-.87.28l-10.41,6a2,2,0,0,0,2,3.47l10.41-6A2,2,0,0,0,13,57Zm51.94,0a2,2,0,0,0-.87,3.75l10.41,6a2,2,0,0,0,2-3.47l-10.41-6A2,2,0,0,0,64.94,57ZM29.1,74v8a4,4,0,0,0,4,4h12a4,4,0,0,0,4-4V74Z"/>
    </g>
  </g>
</svg>
