<svg xmlns="http://www.w3.org/2000/svg" viewBox="0 0 20 20">
      <path class="cls-2" d="M10,0A10,10,0,1,0,20,10,10,10,0,0,0,10,0ZM4.59,13.06h0A.08.08,0,0,1,4.48,13V8.3s0-.07,0-.07a.14.14,0,0,1,.11,0L7.74,10s0,0,0,.06a.09.09,0,0,1,0,.06L4.63,13S4.61,13.06,4.59,13.06ZM15,14.48H4.85l-.17,0a.1.1,0,0,1,0-.15l4-3.7s.06,0,.1,0l1,.59a.44.44,0,0,0,.46,0l1.2-.69c.06,0,.1,0,.11,0l3.57,3.83a.16.16,0,0,1,0,.11A.13.13,0,0,1,15,14.48Zm.48-1.28s0,0-.06.08h0a.11.11,0,0,1-.06,0l-3-3.2s0,0,0-.06,0-.07,0-.07l3-1.76h.09s.06.06.06.09Zm0-6.2a.08.08,0,0,1-.09.09l-.06,0-.07,0-5.24,3.09-.07,0,0,0L4.54,7.13s-.07,0-.07-.09V5.89a.34.34,0,0,1,.11-.27.37.37,0,0,1,.26-.1H15.15a.37.37,0,0,1,.26.1.34.34,0,0,1,.11.27Z"/>

</svg>
