<svg xmlns="http://www.w3.org/2000/svg" viewBox="0 0 33 33">
  <defs>
    <style>
      .cls-1 {
        fill: #fcb22d;
      }
    </style>
  </defs>
  <title>Ресурс 13</title>
  <g id="Слой_2" data-name="Слой 2">
    <g id="Слой_1-2" data-name="Слой 1">
      <path class="cls-1" d="M22.88,27.65a.64.64,0,0,0,.23,0L29.94,25a.69.69,0,0,0,.39-.88.65.65,0,0,0-.84-.4l-6.84,2.62a.69.69,0,0,0-.39.88A.66.66,0,0,0,22.88,27.65Zm-2.17.83a.64.64,0,0,0,.23,0l.29-.11a.69.69,0,0,0,.39-.88.65.65,0,0,0-.84-.4l-.29.11a.69.69,0,0,0-.39.88A.66.66,0,0,0,20.71,28.48Zm3.6-4.16a.63.63,0,0,0,.23,0l5.4-2.07a.69.69,0,0,0,.39-.88.65.65,0,0,0-.84-.4L24.08,23a.69.69,0,0,0-.39.88A.66.66,0,0,0,24.31,24.32Zm0-2.75a.64.64,0,0,0,.23,0l5.4-2.07a.69.69,0,0,0,.39-.88.65.65,0,0,0-.84-.4l-5.4,2.07a.69.69,0,0,0-.39.88A.66.66,0,0,0,24.31,21.57ZM32.57,6.11,16.73,0a.64.64,0,0,0-.46,0L.43,6.11h0l-.15.08A.69.69,0,0,0,0,6.75V26.25a.68.68,0,0,0,.43.64L16.27,33a.64.64,0,0,0,.45,0h0l15.84-6.06a.68.68,0,0,0,.43-.64V6.75A.68.68,0,0,0,32.57,6.11ZM15.84,31.34,1.31,25.78V7.72l3,1.13v8.26a.68.68,0,0,0,.43.64l7.1,2.72a.64.64,0,0,0,.6-.08.69.69,0,0,0,.28-.56V12.08l3.16,1.21ZM11.37,11.57v7.28L5.59,16.64V9.36ZM6.83,8.38l5.2-2,5.2,2-5.2,2Zm9.67,3.71-2.58-1L19.36,9a.69.69,0,0,0,0-1.28L12.26,5a.63.63,0,0,0-.46,0L4.92,7.65,2.56,6.75,16.5,1.41,30.44,6.75Zm15.19,13.7L17.16,31.34V13.28L31.69,7.72Z"/>
    </g>
  </g>
</svg>
