<svg xmlns="http://www.w3.org/2000/svg" viewBox="0 0 20 20">
        <path class="cls-1" d="M10,0H0V10A10.07,10.07,0,0,1,10,0Z"/>
        <path class="cls-1" d="M10,20H20V10A9.93,9.93,0,0,1,10,20Z"/>
        <path class="cls-1" d="M0,10V20H10A10,10,0,0,1,0,10Z"/>
        <path class="cls-1" d="M10,0A10,10,0,0,1,20,10V0Z"/>
        <path class="cls-2" d="M10,0a10,10,0,1,0,0,20A10,10,0,0,0,10,0Zm3.18,13.22a.47.47,0,0,1-.75,0L9.62,10.38H9.54v-.17H9.46v-6A.57.57,0,0,1,10,3.6a.56.56,0,0,1,.5.59V9.79l2.68,2.68A.47.47,0,0,1,13.22,13.22Z"/>
</svg>
