<svg xmlns="http://www.w3.org/2000/svg" viewBox="0 0 42 44">
      <path class="cls-2" d="M18.72,0a3.25,3.25,0,0,0-2.14.77,3,3,0,0,0-1,2.3V13L8.35,10.82a.52.52,0,0,0-.39,0,.51.51,0,0,0-.25.3l-1,3.22L6,14.16H6a4.08,4.08,0,0,0-5,2.74h0L.17,19.43h0a4,4,0,0,0,2.69,5h0l.76.23-1,3.22a.51.51,0,0,0,0,.39.51.51,0,0,0,.31.25L24.54,35l7.86,8.85a.52.52,0,0,0,.74,0,.51.51,0,0,0,.14-.23L42,14.78a.51.51,0,0,0-.12-.5.52.52,0,0,0-.5-.14l-11.46,3.1-8-2.4V3.07a3,3,0,0,0-1-2.3A3.25,3.25,0,0,0,18.72,0Zm0,1a2.24,2.24,0,0,1,1.46.51,1.91,1.91,0,0,1,.64,1.53V17.69a5,5,0,0,0-4.2,0V3.07a1.91,1.91,0,0,1,.64-1.53A2.24,2.24,0,0,1,18.72,1ZM8.55,12l7,2.1v4.28a5,5,0,1,0,6.26,0V15.91l7.39,2.2L24.48,33.89,3.79,27.73ZM4.79,15a3,3,0,0,1,.89.12h0l.76.22L3.93,23.73l-.76-.23h0a3,3,0,0,1-2-3.77h0l.76-2.53A3.05,3.05,0,0,1,4.79,15Zm35.94.35L32.56,42.46,25.4,34.4l4.89-16.21Zm-22,2.89a4,4,0,0,1,2.16.64h0a4,4,0,1,1-4.36,0h0a3.94,3.94,0,0,1,2.19-.66Z"/>
      <path class="cls-2" d="M7.26,25.77a.52.52,0,0,0-.34.12.51.51,0,0,0,.2.88l6.09,1.82a.52.52,0,0,0,.4,0,.51.51,0,0,0,.25-.31.51.51,0,0,0-.17-.55.52.52,0,0,0-.18-.09L7.41,25.79l-.15,0Z"/>
      <path class="cls-2" d="M8,23.15a.52.52,0,0,0-.34.12.51.51,0,0,0,.2.88l3.21,1a.52.52,0,0,0,.4,0,.51.51,0,0,0,.16-.13.51.51,0,0,0-.08-.73.52.52,0,0,0-.18-.09l-3.21-1-.15,0Z"/>
</svg>
