<svg xmlns="http://www.w3.org/2000/svg" viewBox="0 0 21 19">
  <defs>
    <style>
      .cls-1 {
        fill: #3e3d67;
      }
    </style>
  </defs>
  <title>Ресурс 4</title>
  <g id="Слой_2" data-name="Слой 2">
    <g id="Слой_1-2" data-name="Слой 1">
      <path class="cls-1" d="M20.77,5.91A.53.53,0,0,0,20,6L18.69,8A9.45,9.45,0,0,0,9.41,0a9.5,9.5,0,0,0,0,19,9.44,9.44,0,0,0,8.12-4.69.55.55,0,0,0-.19-.74.54.54,0,0,0-.74.19,8.44,8.44,0,1,1,1.08-5.25L15.19,7a.53.53,0,0,0-.74.19.55.55,0,0,0,.19.74L18,10h0a.49.49,0,0,0,.48,0l.05,0a.53.53,0,0,0,.13-.12l0,0L20.9,6.66A.55.55,0,0,0,20.77,5.91Z"/>
    </g>
  </g>
</svg>
