<svg xmlns="http://www.w3.org/2000/svg" viewBox="0 0 84.1 59.6">
  <defs>
    <style>
      .cls-1 {
        fill: #fff;
      }
    </style>
  </defs>
  <title>Ресурс 1</title>
  <g id="Слой_2" data-name="Слой 2">
    <g id="Слой_1-2" data-name="Слой 1">
      <g>
        <polygon class="cls-1" points="9.1 26.8 12.2 25.3 17.1 18.1 18.6 17.5 20.2 24.8 18.1 25.1 16.5 22.1 15.3 26.8 20.6 26.8 26.1 28.2 28.3 26.8 32 30.6 33.6 23.6 36.2 26.2 37.8 24 40.4 23.3 44.2 19.8 44.8 18.1 47.9 18.6 49.2 20.3 46.9 25.1 52.6 22.2 52.6 20.8 54.8 20.3 57.2 22.7 59.6 19.8 59.6 17.8 63.5 15.1 65.1 12.8 67.6 12.8 72 3.9 75.8 0 77.2 2.2 75 5 75.8 6.8 77.9 7.2 79.6 14.6 79.6 20.8 82.6 24.9 84.1 30.6 78.9 27.3 76.6 17.8 75.2 18.1 75 24.5 71.2 30.6 70.1 39.9 72.7 40.5 73.8 39.2 76.3 42 78.2 50.4 78 55.8 75.6 55.8 74.7 48.2 73 50.5 69.3 49.7 66.3 47.2 62.9 48.4 63.1 53.8 60.4 54.5 56.4 57.5 51.6 56.9 49.7 55.8 46.7 56.3 47.7 57.5 45.3 58.9 43.4 58 39.8 59.6 34.3 56.9 32.2 52.1 30.4 52.3 28.3 50.6 28.2 49.3 21.5 48.6 20.4 52.2 16.2 50.3 14.1 46.8 9.6 46.8 9.1 52.4 6.5 53.2 5.2 58.3 4.2 57.4 0 46.7 5 44.3 4.2 39.6 3.4 34.8 5.6 31.7 4.9 29.8 7.9 26.6 9.1 26.8"/>
        <polygon class="cls-1" points="75.6 38.6 80.2 45.4 81.7 44.8 79.8 42 75.6 37.6 75.6 38.6"/>
        <polygon class="cls-1" points="28.6 24.8 28.6 22.8 32.1 20.3 35.1 18.8 31.6 18.8 28.5 20.6 26.6 22.3 26.6 24.8 28.6 24.8"/>
      </g>
    </g>
  </g>
</svg>
