<?xml version="1.0" encoding="utf-8"?><svg xmlns="http://www.w3.org/2000/svg" xmlns:xlink="http://www.w3.org/1999/xlink"><symbol viewBox="0 0 15.97 19" id="actions" xmlns="http://www.w3.org/2000/svg"><defs><style>.aacls-1{fill:#333}</style></defs><g id="aaСлой_2" data-name="Слой 2"><path class="aacls-1" d="M15.92 16l-1.37-2.27a6.69 6.69 0 0 1-1-3.46v-2A5.56 5.56 0 0 0 9.58 3V1.58a1.6 1.6 0 0 0-3.2 0V3a5.56 5.56 0 0 0-4 5.31v2a6.69 6.69 0 0 1-1 3.46L.06 16a.39.39 0 0 0 0 .4.4.4 0 0 0 .35.2h15.16a.4.4 0 0 0 .35-.2.39.39 0 0 0 0-.4zM8 19a2.79 2.79 0 0 0 2.52-1.58h-5A2.79 2.79 0 0 0 8 19z" id="aaСлой_1-2" data-name="Слой 1"/></g></symbol><symbol viewBox="0 0 12 6.03" id="arrw" xmlns="http://www.w3.org/2000/svg"><path class="abcls-3" d="M11.74.2a.83.83 0 0 0-1.09 0L6 4.35 1.33.2a.83.83 0 0 0-1.1 0A.66.66 0 0 0 0 .7a.66.66 0 0 0 .23.49l5.22 4.63a.84.84 0 0 0 1.1 0l5.21-4.64A.66.66 0 0 0 12 .7a.76.76 0 0 0-.26-.5z"/></symbol><symbol viewBox="0 0 16 9" id="arrw-3" xmlns="http://www.w3.org/2000/svg"><path class="accls-2" d="M8.05 9a.88.88 0 0 0 .57-.26l7.09-7a1 1 0 0 0 .21-.31 1 1 0 0 0 0-.75 1 1 0 0 0-.19-.33.92.92 0 0 0-.29-.22.85.85 0 0 0-.7 0 .9.9 0 0 0-.3.2L8 6.69 1.53.26a.9.9 0 0 0-.3-.2.85.85 0 0 0-.7 0 .92.92 0 0 0-.29.25 1 1 0 0 0-.18.33 1 1 0 0 0 0 .75 1 1 0 0 0 .21.31l7.09 7a.9.9 0 0 0 .31.2.85.85 0 0 0 .38.1z"/></symbol><symbol viewBox="0 0 37 37" id="assort" xmlns="http://www.w3.org/2000/svg"><defs><style>.adcls-1{fill:#fcb22d}</style></defs><g id="adСлой_2" data-name="Слой 2"><path class="adcls-1" d="M36.38 0H.62a.62.62 0 0 0 0 1.23h2.46v1.85a.62.62 0 0 0 .62.62h3.7v6.78H6.17a.62.62 0 0 0-.62.62v5.26a.64.64 0 0 1-.29.52 4.91 4.91 0 0 0-2.17 4.24 5 5 0 0 0 4.82 4.78H8a4.93 4.93 0 0 0 2.75-9 .62.62 0 0 1-.28-.52V11.1a.62.62 0 0 0-.62-.62H8.63V3.7h9.25v17.88h-1.23a.62.62 0 0 0-.62.62v5.26a.64.64 0 0 1-.29.52 4.91 4.91 0 0 0-2.17 4.24A5 5 0 0 0 18.39 37h.11a4.93 4.93 0 0 0 2.75-9 .62.62 0 0 1-.28-.51V22.2a.62.62 0 0 0-.62-.62h-1.23V3.7h9.25v10.48h-1.24a.62.62 0 0 0-.62.62v5.26a.64.64 0 0 1-.29.52 4.91 4.91 0 0 0-2.17 4.24 5 5 0 0 0 4.82 4.78H29a4.93 4.93 0 0 0 2.75-9 .62.62 0 0 1-.28-.51V14.8a.62.62 0 0 0-.62-.62H29.6V3.7h3.7a.62.62 0 0 0 .62-.62V1.23h2.47a.62.62 0 0 0 0-1.23zm-26.3 17.9a3.7 3.7 0 0 1 .52 5.71 3.59 3.59 0 0 1-2.67 1.05 3.74 3.74 0 0 1-3.62-3.58 3.68 3.68 0 0 1 1.63-3.18 1.87 1.87 0 0 0 .8-1.25h2.55a1.86 1.86 0 0 0 .79 1.25zm-.83-6.18v3.7H6.78v-3.7zM20.57 29a3.7 3.7 0 0 1 .52 5.71 3.61 3.61 0 0 1-2.67 1.05 3.74 3.74 0 0 1-3.62-3.58A3.68 3.68 0 0 1 16.43 29a1.87 1.87 0 0 0 .8-1.25h2.54a1.86 1.86 0 0 0 .8 1.25zm-.83-6.18v3.7h-2.47v-3.7zM31 21.6a3.7 3.7 0 0 1 .52 5.71 3.62 3.62 0 0 1-2.67 1.05 3.74 3.74 0 0 1-3.62-3.58 3.68 3.68 0 0 1 1.63-3.18 1.87 1.87 0 0 0 .8-1.25h2.54a1.86 1.86 0 0 0 .8 1.25zm-.83-6.18v3.7h-2.42v-3.7zm2.51-12.95H4.32V1.23h28.36z" id="adСлой_1-2" data-name="Слой 1"/></g></symbol><symbol viewBox="0 0 20 17" id="basket" xmlns="http://www.w3.org/2000/svg"><path class="aecls-2" d="M19.82 5.43a.83.83 0 0 0-.66-.33h-4.88l3-3.71A.86.86 0 0 0 17.2.2a.82.82 0 0 0-1.2.11L12.11 5.1H7.89L4 .31A.82.82 0 0 0 2.8.2a.86.86 0 0 0-.11 1.2l3 3.71H.83a.83.83 0 0 0-.66.33.86.86 0 0 0-.17.72l2.5 10.2a.84.84 0 0 0 .81.64h13.36a.84.84 0 0 0 .81-.64L20 6.16a.86.86 0 0 0-.18-.73zM6 14.44h-.17a.84.84 0 0 1-.83-.7l-.83-5.1a.85.85 0 0 1 .68-1 .84.84 0 0 1 1 .7l.83 5.1a.85.85 0 0 1-.68 1zm4.86-.84a.83.83 0 1 1-1.67 0V8.5a.83.83 0 1 1 1.67 0zm5-5L15 13.74a.84.84 0 0 1-.82.71H14a.85.85 0 0 1-.69-1l.83-5.1a.83.83 0 0 1 1-.7.85.85 0 0 1 .68.99z"/></symbol><symbol viewBox="0 0 92 58" id="card" xmlns="http://www.w3.org/2000/svg"><defs><style>.afcls-1{fill:#fcb22d}</style></defs><g id="afСлой_2" data-name="Слой 2"><path class="afcls-1" d="M7 0a7 7 0 0 0-7 7v44a7 7 0 0 0 7 7h78a7 7 0 0 0 7-7V7a7 7 0 0 0-7-7zm0 4h78a3 3 0 0 1 3 3v3H4V7a3 3 0 0 1 3-3zM4 14h84v6H4zm0 10h84v27a3 3 0 0 1-3 3H7a3 3 0 0 1-3-3zm56 8a8 8 0 0 0 0 16 8 8 0 0 0 5-1.78A7.93 7.93 0 0 0 70 48a8 8 0 1 0-5-14.25A8 8 0 0 0 60 32zm0 4a4 4 0 1 1-4 4 4 4 0 0 1 4-4zm10 0a4 4 0 1 1-2.59 7 7.83 7.83 0 0 0 .59-3 8 8 0 0 0-.59-3A4 4 0 0 1 70 36z" id="afСлой_1-2" data-name="Слой 1"/></g></symbol><symbol viewBox="0 0 17 17" id="catalog" xmlns="http://www.w3.org/2000/svg"><defs><style>.agcls-1{fill:#333}</style></defs><g id="agСлой_2" data-name="Слой 2"><path class="agcls-1" d="M7.19 0H.65A.65.65 0 0 0 0 .65v6.54a.65.65 0 0 0 .65.65h6.54a.65.65 0 0 0 .65-.65V.65A.65.65 0 0 0 7.19 0zm9.15 0H9.81a.65.65 0 0 0-.65.65v6.54a.65.65 0 0 0 .65.65h6.54a.65.65 0 0 0 .65-.65V.65a.65.65 0 0 0-.65-.65zM7.19 9.15H.65a.65.65 0 0 0-.65.66v6.54a.65.65 0 0 0 .65.65h6.54a.65.65 0 0 0 .65-.65V9.81a.65.65 0 0 0-.65-.66zm9.15 0H9.81a.65.65 0 0 0-.65.65v6.54a.65.65 0 0 0 .65.65h6.54a.65.65 0 0 0 .65-.65V9.81a.65.65 0 0 0-.65-.66z" id="agСлой_1-2" data-name="Слой 1"/></g></symbol><symbol viewBox="0 0 36 38" id="ceni" xmlns="http://www.w3.org/2000/svg"><defs><style>.ahcls-1{fill:#fcb22d}</style></defs><g id="ahСлой_2" data-name="Слой 2"><path class="ahcls-1" d="M34.26 19.49a1.13 1.13 0 0 1 0-1l1.4-2.9a3.32 3.32 0 0 0-1.41-4.38l-2.81-1.49a1.11 1.11 0 0 1-.57-.8l-.55-3.18A3.26 3.26 0 0 0 26.64 3l-3.15.45a1.09 1.09 0 0 1-.92-.3L20.27.94a3.23 3.23 0 0 0-4.55 0l-2.28 2.24a1.09 1.09 0 0 1-.92.3L9.36 3a3.26 3.26 0 0 0-3.68 2.74l-.55 3.18a1.11 1.11 0 0 1-.57.8l-2.82 1.51a3.32 3.32 0 0 0-1.4 4.38l1.4 2.9a1.13 1.13 0 0 1 0 1l-1.4 2.9a3.32 3.32 0 0 0 1.41 4.38l2.81 1.51a1.11 1.11 0 0 1 .57.8l.55 3.18A3.27 3.27 0 0 0 8.89 35a3.3 3.3 0 0 0 .47 0l3.15-.45a1.09 1.09 0 0 1 .92.3l2.29 2.24a3.23 3.23 0 0 0 4.55 0l2.29-2.24a1.09 1.09 0 0 1 .92-.3l3.15.45a3.26 3.26 0 0 0 3.68-2.71l.55-3.18a1.11 1.11 0 0 1 .57-.8l2.81-1.51a3.32 3.32 0 0 0 1.41-4.38zm-1 5.34l-2.81 1.51a3.29 3.29 0 0 0-1.69 2.35l-.55 3.18a1.1 1.1 0 0 1-1.24.92l-3.15-.45a3.22 3.22 0 0 0-2.73.9l-2.29 2.24a1.09 1.09 0 0 1-1.54 0l-2.29-2.24a3.22 3.22 0 0 0-2.27-.93 3.32 3.32 0 0 0-.47 0l-3.15.45a1.1 1.1 0 0 1-1.24-.92l-.58-3.14a3.29 3.29 0 0 0-1.69-2.35l-2.81-1.51a1.12 1.12 0 0 1-.48-1.48l1.4-2.9a3.33 3.33 0 0 0 0-2.91l-1.4-2.9a1.12 1.12 0 0 1 .48-1.48l2.81-1.51A3.29 3.29 0 0 0 7.26 9.3l.55-3.18a1.1 1.1 0 0 1 1.24-.92l3.15.45a3.22 3.22 0 0 0 2.73-.9l2.29-2.24a1.09 1.09 0 0 1 1.54 0l2.29 2.24a3.22 3.22 0 0 0 2.73.9l3.15-.45a1.1 1.1 0 0 1 1.24.92l.55 3.18a3.29 3.29 0 0 0 1.69 2.35l2.81 1.51a1.12 1.12 0 0 1 .48 1.48l-1.4 2.9a3.33 3.33 0 0 0 0 2.91l1.4 2.9a1.12 1.12 0 0 1-.46 1.49zM25.9 11a1.07 1.07 0 0 0-1.53 0L10.09 25.46a1.11 1.11 0 0 0 0 1.55 1.07 1.07 0 0 0 1.53 0L25.9 12.54a1.11 1.11 0 0 0 0-1.54zm-12.23 6.17a4 4 0 1 0-4-4 4 4 0 0 0 4 4zm0-5.84a1.83 1.83 0 1 1-1.8 1.83 1.82 1.82 0 0 1 1.8-1.83zm8.66 9.5a4 4 0 1 0 4 4 4 4 0 0 0-4-4zm0 5.84a1.83 1.83 0 1 1 1.8-1.83 1.82 1.82 0 0 1-1.8 1.83z" id="ahСлой_1-2" data-name="Слой 1"/></g></symbol><symbol viewBox="0 0 13 12" id="check" xmlns="http://www.w3.org/2000/svg"><defs><style>.aicls-1{fill:#18c11e}</style></defs><g id="aiСлой_2" data-name="Слой 2"><path class="aicls-1" d="M2.11 5.78l2.5 2.78 7.3-8.34c.55-.56 1.41 0 1 .68L5.7 11.45a1.16 1.16 0 0 1-1.91.08L.16 7.36C-.54 6.38 1.25 5 2.11 5.78z" id="aiСлой_1-2" data-name="Слой 1"/></g></symbol><symbol viewBox="0 0 21.95 21.96" id="close" xmlns="http://www.w3.org/2000/svg"><defs><style>.ajcls-1{fill:#fff}</style></defs><g id="ajСлой_2" data-name="Слой 2"><path class="ajcls-1" d="M21.55.4a1.36 1.36 0 0 0-1.93 0L11 9 2.33.4A1.36 1.36 0 0 0 .4 2.33L9 11 .4 19.62a1.36 1.36 0 0 0 0 1.93 1.37 1.37 0 0 0 1 .4 1.33 1.33 0 0 0 1-.4l8.6-8.64 8.65 8.65a1.37 1.37 0 0 0 1 .4 1.31 1.31 0 0 0 1-.4 1.36 1.36 0 0 0 0-1.93L12.91 11l8.65-8.65A1.36 1.36 0 0 0 21.55.4z" id="ajСлой_1-2" data-name="Слой 1"/></g></symbol><symbol viewBox="0 0 55.63 74.99" id="del" xmlns="http://www.w3.org/2000/svg"><defs><style>.akcls-1{fill:#fc6969}</style></defs><g id="akСлой_2" data-name="Слой 2"><path class="akcls-1" d="M3 67a8 8 0 0 0 8 8h33.65a8 8 0 0 0 8-8V16.7H3zM39.88 4.38L37.25 0H18.38l-2.64 4.38H0v9.7h55.63v-9.7z" id="akСлой_1-2" data-name="Слой 1"/></g></symbol><symbol viewBox="0 0 90 57" id="delivery" xmlns="http://www.w3.org/2000/svg"><defs><style>.alcls-1{fill:#858585}</style></defs><g id="alСлой_2" data-name="Слой 2"><g id="alСлой_1-2" data-name="Слой 1"><path class="alcls-1" d="M74.25 41.7a7.65 7.65 0 1 0 7.65 7.65 7.66 7.66 0 0 0-7.65-7.65zm0 9.9a2.25 2.25 0 1 1 2.25-2.25 2.25 2.25 0 0 1-2.25 2.25z"/><path class="alcls-1" d="M73.52 9.9H60.3a1.8 1.8 0 0 0-1.8 1.8v35.1a1.8 1.8 0 0 0 1.8 1.8h1.91A1.79 1.79 0 0 0 64 47.07a9.92 9.92 0 0 1 10.25-8.77 9.92 9.92 0 0 1 10.25 8.77 1.79 1.79 0 0 0 1.8 1.53h1.9a1.8 1.8 0 0 0 1.8-1.8V29.25a1.8 1.8 0 0 0-.42-1.15L74.9 10.54a1.8 1.8 0 0 0-1.38-.64zM62.1 24.3v-9a1.8 1.8 0 0 1 1.8-1.8h7.93a1.8 1.8 0 0 1 1.38.65l7.5 9a1.8 1.8 0 0 1-1.38 3H63.9a1.8 1.8 0 0 1-1.8-1.85zM1.8 0A1.8 1.8 0 0 0 0 1.8v45a1.8 1.8 0 0 0 1.8 1.8h4.61a1.8 1.8 0 0 0 1.8-1.53 9.92 9.92 0 0 1 10.24-8.77 9.92 9.92 0 0 1 10.25 8.77 1.79 1.79 0 0 0 1.79 1.53H53.1a1.8 1.8 0 0 0 1.8-1.8v-45A1.8 1.8 0 0 0 53.1 0zM35 10.49a1.5 1.5 0 0 1 1.08.46l5 5A1.5 1.5 0 0 1 40 18.51H15a1.5 1.5 0 1 1 0-3h21.39l-2.44-2.44a1.5 1.5 0 0 1 1-2.58zm-20 10h25a1.5 1.5 0 0 1 0 3H18.61l2.44 2.44a1.5 1.5 0 1 1-2.12 2.12l-5-5A1.5 1.5 0 0 1 15 20.49z"/><path class="alcls-1" d="M18.45 41.7a7.65 7.65 0 1 0 7.65 7.65 7.66 7.66 0 0 0-7.65-7.65zm0 9.9a2.25 2.25 0 1 1 2.25-2.25 2.25 2.25 0 0 1-2.25 2.25z"/></g></g></symbol><symbol viewBox="0 0 43 29" id="delivery2" xmlns="http://www.w3.org/2000/svg"><defs><style>.amcls-1{fill:#fcb22d}</style></defs><g id="amСлой_2" data-name="Слой 2"><path class="amcls-1" d="M35.15 21.2a4 4 0 0 0-2.8 1.14 3.82 3.82 0 0 0 0 5.51 4 4 0 0 0 2.8 1.15 3.9 3.9 0 1 0 0-7.8zm0 6.06a2.17 2.17 0 1 1 0-4.33 2.17 2.17 0 0 1 0 4.33zm1-19a.85.85 0 0 0-.57-.26h-4.49a.87.87 0 0 0-.88.87V16a.87.87 0 0 0 .88.87h7.13a.87.87 0 0 0 .88-.87v-4.79a.86.86 0 0 0-.29-.64zm1.17 6.88H32V9.72h3.27l2.1 1.87zM13.77 21.2A4 4 0 0 0 11 22.35a3.82 3.82 0 0 0 0 5.51A4 4 0 0 0 13.77 29a3.9 3.9 0 1 0 0-7.8zm0 6.06a2.17 2.17 0 1 1 0-4.33 2.17 2.17 0 0 1 0 4.33zm-5.84-5H6.17V20a.88.88 0 0 0-1.75 0v3.17a.87.87 0 0 0 .88.83h2.63a.87.87 0 1 0 0-1.73zm4.44-4.72a.87.87 0 0 0-.88-.87H.88a.87.87 0 1 0 0 1.73H11.5a.87.87 0 0 0 .87-.85zm-9.72-3.12l10.62.06a.88.88 0 0 0 .88-.86.86.86 0 0 0-.87-.87l-10.61-.06a.87.87 0 1 0 0 1.73zm1.79-3.93h10.62a.87.87 0 1 0 0-1.73H4.44a.87.87 0 1 0 0 1.73zm38.24-1.17l-6.27-5.14a.87.87 0 0 0-.56-.2h-7.38V.87A.87.87 0 0 0 27.6 0H5.3a.87.87 0 0 0-.88.87v6.34a.88.88 0 0 0 1.75 0V1.73h20.56v20.54h-7.18a.87.87 0 1 0 0 1.73h10.69a.87.87 0 1 0 0-1.73h-1.76V5.72h7.06l5.71 4.68-.06 11.86h-.91a.87.87 0 1 0 0 1.73h1.78a.87.87 0 0 0 .88-.86L43 10a.91.91 0 0 0-.32-.68z" id="amСлой_1-2" data-name="Слой 1"/></g></symbol><symbol viewBox="0 0 16 15.02" id="dislike" xmlns="http://www.w3.org/2000/svg"><defs><style>.ancls-1{fill:#333}</style></defs><g id="anСлой_2" data-name="Слой 2"><path class="ancls-1" d="M2.61 0H.52A.52.52 0 0 0 0 .51v9.2a.52.52 0 0 0 .52.51h2.09a.52.52 0 0 0 .52-.51V.51A.52.52 0 0 0 2.61 0zM15.3 7.4a1.53 1.53 0 0 0-.52-2 1.53 1.53 0 0 0-.52-2A1.55 1.55 0 0 0 12.89 1H4.18v8.2s2.52 2.23 3.33 3a3.11 3.11 0 0 1 .89 1.66 2.08 2.08 0 0 0 .17.72.87.87 0 0 0 .53.39 1.84 1.84 0 0 0 1.21-.17 2.62 2.62 0 0 0 .92-3.11l-.55-1.47h4a1.55 1.55 0 0 0 .62-2.82z" id="anСлой_1-2" data-name="Слой 1"/></g></symbol><symbol viewBox="0 0 18 17" id="enter" xmlns="http://www.w3.org/2000/svg"><path class="aocls-2" d="M16.55 0H8a1.44 1.44 0 0 0-1.39 1.45v2.89a.47.47 0 1 0 .95 0V1.45A.49.49 0 0 1 8 1h7.17l-3.59 1.55a2.09 2.09 0 0 0-1.14 1.79v9.12H8.07a.49.49 0 0 1-.48-.46v-2.91a.47.47 0 1 0-.95 0V13a1.44 1.44 0 0 0 1.42 1.44h2.37v1.45a1.09 1.09 0 0 0 .47 1 1 1 0 0 0 .56.17 1.08 1.08 0 0 0 .5-.11l4.88-2.12A2.09 2.09 0 0 0 18 13V1.45A1.46 1.46 0 0 0 16.55 0z"/><path class="aocls-2" d="M7.9 6.89L5.05 4a.45.45 0 0 0-.67 0 .47.47 0 0 0 0 .68l2 2.07H.47a.48.48 0 0 0 0 1h6l-2 2.07a.47.47 0 0 0 0 .68.47.47 0 0 0 .67 0l2.79-2.93a.49.49 0 0 0-.03-.68z"/></symbol><symbol viewBox="0 0 61.57 54.4" id="expeditor" xmlns="http://www.w3.org/2000/svg"><defs><style>.apcls-1{fill:#fcb22d}</style></defs><g id="apСлой_2" data-name="Слой 2"><g id="apСлой_1-2" data-name="Слой 1"><path class="apcls-1" d="M61.2 21.47c-1.08-1.46-3.54-2-6.41-1.29a9.3 9.3 0 0 0-1.39.42V0h-39v27.32c-1.07 1.06-2.82 2.74-4.38 4.21L8.2 29.71 0 37.93 16.5 54.4l8.19-8.2-2.44-2.44A1.76 1.76 0 0 1 23.5 43h18.28c2.37 0 11.58-9 11.66-9.12.94-1.06 6.52-8.22 7.89-11.42l.24-.52zM38.4 2v4h-9V2zm-22 0h11v6h13V2h11v19.69a11.36 11.36 0 0 0-3.28 3.89l-4.75 2.31a4.94 4.94 0 0 0-3-.89h-7.75a7.92 7.92 0 0 1-1.5-1c-1.18-.91-2.5-2-3.86-2h-6.41a8.73 8.73 0 0 0-4.45 1.69zm.1 49.58L2.83 37.93l5.37-5.38.36.35L10 34.32l9.52 9.53 1.43 1.43.93.92zm35.44-19c-1.38 1.5-8.89 8.12-10.16 8.42H23.5a3.6 3.6 0 0 0-2.72 1.33l-9.38-9.38 3.08-3 1.46-1.43c.21-.18.42-.38.66-.57a8 8 0 0 1 4.21-2h6.41c.67 0 1.8.89 2.62 1.53.2.17.41.32.6.47a3.77 3.77 0 0 0 2.1 1h7.82a2.66 2.66 0 0 1 2.28 1 2.53 2.53 0 0 1 .48 1.5A2.49 2.49 0 0 1 40.65 34H29.36v2h11a4.48 4.48 0 0 0 4.75-4.19v-.31a4.73 4.73 0 0 0-.26-1.5 2.6 2.6 0 0 0-.21-.51L47.78 28l1.83-.91.16-.28a10.52 10.52 0 0 1 1.66-2.44 7.3 7.3 0 0 1 3.85-2.24 5.76 5.76 0 0 1 3.94.19 82.2 82.2 0 0 1-7.28 10.23z"/><path class="apcls-1" d="M7.39 36.6L6.3 37.68l2.62 2.64 1.22-1.24.19-.18-2.62-2.62-.32.32zM18.41 20h2v2h-2zm4 0h2v2h-2zm4 0h2v2h-2z"/></g></g></symbol><symbol viewBox="0 0 20.02 13" id="eye" xmlns="http://www.w3.org/2000/svg"><defs><style>.aqcls-1{fill:#333}</style></defs><g id="aqСлой_2" data-name="Слой 2"><path class="aqcls-1" d="M10 0C6.18 0 2.72 2.28.16 6a.93.93 0 0 0 0 1c2.56 3.71 6 6 9.85 6s7.29-2.28 9.85-6a.93.93 0 0 0 0-1C17.3 2.28 13.83 0 10 0zm.27 11.08A4.41 4.41 0 0 1 5.81 6.2a4.42 4.42 0 0 1 3.92-4.28 4.41 4.41 0 0 1 4.48 4.88 4.44 4.44 0 0 1-3.93 4.28zM10.16 9a2.37 2.37 0 0 1-2.41-2.66A2.39 2.39 0 0 1 9.86 4a2.37 2.37 0 0 1 2.41 2.62A2.39 2.39 0 0 1 10.16 9z" id="aqСлой_1-2" data-name="Слой 1"/></g></symbol><symbol viewBox="0 0 90 78.93" id="garatiya" xmlns="http://www.w3.org/2000/svg"><defs><style>.arcls-1{fill:#fcb22d}</style></defs><g id="arСлой_2" data-name="Слой 2"><g id="arСлой_1-2" data-name="Слой 1"><path class="arcls-1" d="M45 10a26.15 26.15 0 1 0 26.15 26.11A26.18 26.18 0 0 0 45 10zm0 48.29a22.15 22.15 0 1 1 22.15-22.18A22.17 22.17 0 0 1 45 58.26z"/><path class="arcls-1" d="M77.26 52.57l-.1-.08A36.1 36.1 0 1 0 8.89 36.11a35.87 35.87 0 0 0 3.95 16.38l-.1.08L.59 64.73a2 2 0 0 0 1.24 3.41l8.24.73.73 8.24a2 2 0 0 0 3.41 1.24l11.62-11.66a36 36 0 0 0 38.34 0L75.8 78.34a2 2 0 0 0 3.41-1.24l.73-8.24 8.24-.73a2 2 0 0 0 1.24-3.41zM14.4 72.48l-.5-5.64A2 2 0 0 0 12.08 65l-5.64-.5 8.47-8.47a36.39 36.39 0 0 0 7.61 8.29zm-1.51-36.37A32.11 32.11 0 1 1 45 68.22a32.15 32.15 0 0 1-32.11-32.11zM77.92 65a2 2 0 0 0-1.81 1.81l-.5 5.64-8.12-8.14a36.41 36.41 0 0 0 7.61-8.29l8.47 8.47z"/><path class="arcls-1" d="M58.31 24.16a2 2 0 0 0-2.79.47L42.21 43.27l-7.89-8.52a2 2 0 0 0-2.94 2.72l9.56 10.32a2 2 0 0 0 1.47.64h.13a2 2 0 0 0 1.5-.83L58.78 27a2 2 0 0 0-.47-2.84z"/></g></g></symbol><symbol viewBox="0 0 18 15" id="izbrznnoe" xmlns="http://www.w3.org/2000/svg"><path class="ascls-2" d="M9.07 15H9C-4.67 7.31 0-.09 5.07 0a4.31 4.31 0 0 1 .49 0A4.08 4.08 0 0 1 9 2.23 4.05 4.05 0 0 1 12.45 0c5.22-.56 10.65 7.05-3.38 15z"/></symbol><symbol viewBox="0 0 79.53 77.66" id="kreml" xmlns="http://www.w3.org/2000/svg"><defs><style>.atcls-1{fill:#fff}</style></defs><g id="atСлой_2" data-name="Слой 2"><g id="atСлой_1-2" data-name="Слой 1"><path class="atcls-1" d="M44.13 53.87c-.14-1-.57-1.15-2-2s-1.43-1.36-1.56-2.2-.15-1.34-.83-1.35c-.69 0-.69.53-.83 1.35s-.14 1.37-1.57 2.2-1.85.95-2 2-1.28.84-1.28.84v7.11h11.35v-7.11s-1.13.21-1.28-.84zm-4.5-10.21a4.88 4.88 0 1 0-4.88-4.88 4.87 4.87 0 0 0 4.88 4.88zM39.8 39v.75h-.36v-.47l-.19.14-.15-.2.35-.27v-3.39h.36v3.11l3-2.37.16.21"/><path class="atcls-1" d="M78.57 53.31v-3.62a2.51 2.51 0 0 0-1.27.6 4.12 4.12 0 0 0-.89 1.71 2.84 2.84 0 0 0-.72-1.69 2.06 2.06 0 0 0-1.44-.64v3.63h-1.74v-3.61a2.51 2.51 0 0 0-1.27.6 4.14 4.14 0 0 0-.89 1.71 2.84 2.84 0 0 0-.72-1.69 2.07 2.07 0 0 0-1.45-.64v3.63h-1.73v-3.61a2.49 2.49 0 0 0-1.27.6 4.14 4.14 0 0 0-.89 1.71 2.82 2.82 0 0 0-.72-1.69 2.06 2.06 0 0 0-1.44-.64v3.63H60.4v-3.61a2.51 2.51 0 0 0-1.27.6 4.13 4.13 0 0 0-.89 1.71 2.83 2.83 0 0 0-.72-1.69 2.06 2.06 0 0 0-1.44-.64v3.63h-.82l-.5-3.78-1.35 3.73L50.94 52l-2 1.21-.46-12.64-.9 2.43h-.78s.22-6.87.22-8.91.11-5.43-.45-6.88-1-2.91-1-2.91L45 26.08l-.9-.1L40.63 9.6l-.45-.49-.28-1.53 3.22 2.33-1.23-3.78 3.22-2.35h-4L39.89 0l-1.22 3.79h-4l3.23 2.35-1.22 3.77 2.87-2.08-.24 1.28-.44.49L35.39 26l-.9.1-.56-1.74s-.45 1.46-1 2.91-.45 4.84-.45 6.88.22 8.85.22 8.85h-.79L31 40.61l.07 12.87L28.54 52l-1.7 1.55-2.12-4.07-.5 3.78h-.78v-3.57a2.52 2.52 0 0 0-1.27.6A4.11 4.11 0 0 0 21.3 52a2.81 2.81 0 0 0-.72-1.69 2.05 2.05 0 0 0-1.44-.64v3.63H17.4v-3.61a2.51 2.51 0 0 0-1.27.6 4.12 4.12 0 0 0-.89 1.71 2.83 2.83 0 0 0-.72-1.69 2.06 2.06 0 0 0-1.44-.64v3.63h-1.73v-3.61a2.51 2.51 0 0 0-1.27.6 4.12 4.12 0 0 0-.9 1.71 2.82 2.82 0 0 0-.72-1.69A2.05 2.05 0 0 0 7 49.69v3.61H5.29v-3.61a2.52 2.52 0 0 0-1.27.6A4.15 4.15 0 0 0 3.13 52a2.8 2.8 0 0 0-.72-1.69A2.05 2.05 0 0 0 1 49.69v3.61H0v24.36h33.12v-7.88s.87-3.25 6.41-3.25 6.94 3.25 6.94 3.25v7.89h33.06V53.31zm-53.3 23h-.64V55.72h.64zm5.3-18.8h-3.71v-2.17c0-.61.44-.12.54-.84s1.12-1 1.31-1c.19.05 1.22.38 1.31 1s.56.22.53.84.02 2.14.02 2.14zm-13.88 1.62H14v-1.56c0-.44.31-.08.38-.6s.8-.71.94-.75c.14 0 .88.27.94.75s.4.15.38.6.05 1.56.05 1.56zm-6.33 0H7.7v-1.56c0-.44.31-.08.39-.6s.8-.71.93-.75H9c.13 0 .88.27.94.75s.4.15.38.6.04 1.56.04 1.56zm-5.9 0H1.8v-1.56c0-.44.31-.08.38-.6s.8-.71.94-.75c.14 0 .88.27.94.75s.4.15.38.6.03 1.56.03 1.56zm73.34 0h-2.66v-1.56c0-.44.32-.08.39-.6s.8-.71.93-.75c.14 0 .88.27.94.75s.4.15.38.6.02 1.56.02 1.56zm-6.32 0h-2.67v-1.56c0-.44.32-.08.39-.6s.8-.71.93-.75c.13 0 .88.27.94.75s.4.15.38.6.03 1.56.03 1.56zm-5.9 0h-2.66v-1.56c0-.44.32-.08.39-.6s.8-.71.94-.75c.13 0 .88.27.94.75s.4.15.38.6.01 1.56.01 1.56zM45.17 27.32c.18-.65.32-1 .35-1.12 0 .1.17.48.36 1.13s.34.46.34 1.47v3.06c-.44-.07-.88-.14-1.33-.2V28.8c-.05-1.01.11-.7.28-1.48zm-2.59-.39c.51.84.76.5.76 1.59 0 .76 0 2.22-.07 3-1-.1-2-.17-3-.19 0-.83-.06-2.13-.06-2.84 0-1.09.25-.75.76-1.59s.72-1.1.8-1.22a13.57 13.57 0 0 1 .82 1.25zm-2.26-16.7l2.57 16s-1-2.32-1.76-.91-1 .91-1 .91zm-1.07 0l.22 16s-.22.5-1-.91-1.76.91-1.76.91zM37 26.93a14 14 0 0 1 .8-1.22 14.58 14.58 0 0 1 .8 1.22c.51.84.76.5.76 1.59 0 .71 0 2-.06 2.83-1 0-2 .06-3 .15 0-.81-.06-2.23-.06-3 0-1.07.24-.73.76-1.57zm2.64 6.22A5.63 5.63 0 1 1 34 38.78a5.63 5.63 0 0 1 5.63-5.63zm-6-5.83c.19-.65.32-1 .36-1.12 0 .1.17.48.36 1.13s.33.46.33 1.47v2.8c-.46.05-.9.12-1.33.18v-3c-.08-.99.03-.68.25-1.46zm.85 37.62H32a6.7 6.7 0 0 0 0-.68c0-.18.29 0 .35-.25s.74-.31.87-.32c.12 0 .8.11.86.32s.37.07.34.25.04.68.04.68zm4.15 0h-2.47v-.68c0-.2.29 0 .35-.25s.74-.31.86-.32c.12 0 .81.11.85.32s.37.07.36.25a5.67 5.67 0 0 0 .02.68zm1-2.37h-6.39v-8.41a1.19 1.19 0 0 0 1.46-1c.17-1.23.65-1.36 2.27-2.35a2.9 2.9 0 0 0 1.78-2.6c.16-1 .16-1.59.94-1.61.78 0 .78.64.94 1.61a2.9 2.9 0 0 0 1.78 2.6c1.62 1 2.11 1.12 2.27 2.35a1.19 1.19 0 0 0 1.46 1v8.42H39.6zm3.15 2.37h-2.47a6.14 6.14 0 0 0 0-.68c0-.18.29 0 .35-.25s.74-.31.86-.32c.13 0 .81.11.86.32s.37.07.35.25.02.68.02.68zm4.15 0h-2.47a6.7 6.7 0 0 0 0-.68c0-.18.29 0 .35-.25s.74-.31.87-.32c.13 0 .81.11.87.32s.37.07.35.25a6.41 6.41 0 0 0 0 .68zm6-9.64v2.17h-3.73V55.3c0-.61.44-.12.53-.84s1.12-1 1.31-1c.19.05 1.22.38 1.31 1s.64.22.56.84zm1.81 21h-.65V55.72h.64z"/></g></g></symbol><symbol viewBox="0 0 32 50" id="lamps" xmlns="http://www.w3.org/2000/svg"><path class="aucls-2" d="M16 50a.62.62 0 0 1-.61-.62V37.75a.61.61 0 1 1 1.22 0v11.63A.62.62 0 0 1 16 50zm14.26-5a.6.6 0 0 1-.47-.22L22.55 36a.63.63 0 0 1 .08-.88.6.6 0 0 1 .86.08l7.24 8.8a.63.63 0 0 1-.08.88.6.6 0 0 1-.39.12zM1.74 45a.6.6 0 0 1-.39-.15.63.63 0 0 1-.08-.85l7.25-8.8a.6.6 0 0 1 .86-.08.63.63 0 0 1 .08.88l-7.25 8.8a.6.6 0 0 1-.47.2zM16 34.26a6.08 6.08 0 0 1-5.17-2.92H.61a.62.62 0 0 1-.61-.62c0-7.9 6.85-14.35 15.39-14.65V.62a.61.61 0 1 1 1.22 0v15.46C25.15 16.37 32 22.83 32 30.72a.62.62 0 0 1-.61.62H21.17A6.08 6.08 0 0 1 16 34.26zm-3.65-2.92a4.82 4.82 0 0 0 7.3 0zm8.47-1.25h9.94C30.4 23 23.92 17.31 16 17.31S1.6 23 1.24 30.1zM5.59 24.48a.6.6 0 0 1-.36-.12.63.63 0 0 1-.13-.87 16.59 16.59 0 0 1 4.53-3.73.6.6 0 0 1 .83.24.63.63 0 0 1-.24.85 15.66 15.66 0 0 0-4.14 3.37.61.61 0 0 1-.49.26z"/></symbol><symbol viewBox="0 0 24 45" id="led" xmlns="http://www.w3.org/2000/svg"><path class="avcls-2" d="M3.48 16.79V8.5a8.52 8.52 0 0 1 17 0v8.29H24v4.63h-4.22V32H19l-.31 13h-1.8l-.31-13h-.78V21.43H7.93V32h-.75l-.31 13H5l-.3-13H4V21.43H0v-4.64zM5 21.43V31h.75l.2 8.5.2-8.5h.72v-9.57zm11.86 0V31h.75l.2 8.5L18 31h.72v-9.57zM12 1a7.47 7.47 0 0 0-7.47 7.5v9.34H1v2.54h22v-2.54h-3.53V8.5A7.47 7.47 0 0 0 12 1z"/></symbol><symbol viewBox="0 0 20 14" id="left" xmlns="http://www.w3.org/2000/svg"><defs><style>.awcls-1{fill:#3e3d67}</style></defs><g id="awСлой_2" data-name="Слой 2"><path class="awcls-1" d="M0 7a.92.92 0 0 1 .19-.48L5.74.25a.73.73 0 0 1 1-.06.72.72 0 0 1 .06 1l-4.48 5h16.94a.74.74 0 1 1 0 1.47H2.37l4.48 5a.71.71 0 0 1-.1 1 .7.7 0 0 1-1-.07L.19 7.48A.72.72 0 0 1 0 7z" id="awСлой_1-2" data-name="Слой 1"/></g></symbol><symbol viewBox="0 0 44 45" id="lenta" xmlns="http://www.w3.org/2000/svg"><defs><style>.axcls-1,.axcls-2{fill:#fff}.axcls-1{fill-opacity:0}.axcls-2{stroke:#fff;stroke-linecap:round;stroke-linejoin:round}</style></defs><g id="axСлой_2" data-name="Слой 2"><g id="axСлой_1-2" data-name="Слой 1"><path class="axcls-1" d="M.5.5h43v44H.5z"/><path class="axcls-1" d="M.5.5h43v44H.5z"/><path class="axcls-1" d="M.5.5h43v44H.5z"/><path class="axcls-1" d="M.5.5h43v44H.5z"/><path class="axcls-1" d="M.5.5h43v44H.5z"/><path class="axcls-1" d="M15.81 2.73h25.42v7.4H15.81z"/><path class="axcls-2" d="M17.23 5.55a1.41 1.41 0 1 0-1.41-1.41 1.41 1.41 0 0 0 1.41 1.41zm6.99-.26a1.41 1.41 0 1 0-1.47 1.34 1.41 1.41 0 0 0 1.47-1.34zm5.58 1.15a1.41 1.41 0 1 0-1.53 1.26 1.4 1.4 0 0 0 1.53-1.26zm5.59 1.15a1.41 1.41 0 1 0-1.59 1.19 1.41 1.41 0 0 0 1.59-1.19zM41 8.75a1.41 1.41 0 1 0-1.65 1.12A1.41 1.41 0 0 0 41 8.75z"/><path class="axcls-1" d="M3.22 35.11h25.42v7.4H3.22z"/><path class="axcls-2" d="M4.64 37.93a1.41 1.41 0 1 0-1.41-1.41 1.41 1.41 0 0 0 1.41 1.41zm6.99-.26A1.41 1.41 0 1 0 10.16 39a1.41 1.41 0 0 0 1.47-1.33zm5.58 1.14a1.41 1.41 0 1 0-1.53 1.26 1.4 1.4 0 0 0 1.53-1.26zM22.8 40a1.41 1.41 0 1 0-1.59 1.19A1.41 1.41 0 0 0 22.8 40zm5.58 1.12a1.41 1.41 0 1 0-1.65 1.12 1.41 1.41 0 0 0 1.65-1.12z"/><path class="axcls-1" d="M2.79 11.85h38.07v9.94H2.79z"/><path class="axcls-2" d="M4.2 14.67a1.41 1.41 0 1 0-1.41-1.41 1.41 1.41 0 0 0 1.41 1.41zm7.24-.22A1.41 1.41 0 1 0 10 15.82a1.41 1.41 0 0 0 1.44-1.37zm5.83 1.2a1.41 1.41 0 1 0-1.5 1.35 1.4 1.4 0 0 0 1.5-1.35zm5.83 1.18a1.41 1.41 0 1 0-1.53 1.26 1.4 1.4 0 0 0 1.53-1.26zM28.93 18a1.41 1.41 0 1 0-1.58 1.22A1.41 1.41 0 0 0 28.93 18zm5.82 1.22a1.41 1.41 0 1 0-1.62 1.17 1.41 1.41 0 0 0 1.62-1.17zm5.83 1.19a1.41 1.41 0 1 0-1.65 1.12 1.41 1.41 0 0 0 1.65-1.12z"/><path class="axcls-1" d="M2.79 23.45h38.06v9.94H2.79z"/><path class="axcls-2" d="M4.2 26.27a1.41 1.41 0 1 0-1.41-1.41 1.41 1.41 0 0 0 1.41 1.41zm7.24-.22A1.41 1.41 0 1 0 10 27.41a1.41 1.41 0 0 0 1.44-1.36zm5.83 1.19a1.41 1.41 0 1 0-1.49 1.31 1.4 1.4 0 0 0 1.49-1.31zm5.82 1.19a1.41 1.41 0 1 0-1.53 1.26 1.4 1.4 0 0 0 1.53-1.26zm5.83 1.19a1.41 1.41 0 1 0-1.57 1.21 1.4 1.4 0 0 0 1.57-1.21zm5.83 1.19A1.41 1.41 0 1 0 33.14 32a1.41 1.41 0 0 0 1.61-1.19zM40.58 32a1.41 1.41 0 1 0-1.65 1.12A1.41 1.41 0 0 0 40.58 32zM14 .5l-1.11 5.94 29.46 5.69 1.15-5.94zM1.66 32.87L.51 38.81 30 44.5l1.15-5.94zM1.65 9.69L.5 15.63l41.85 8.08 1.15-5.94z"/><path class="axcls-2" d="M1.65 21.29L.5 27.22l41.85 8.08 1.15-5.94zm40.7-9.16L18 12.85m9.14-3.66l-25.5.5m40.71 14.03L18 24.44m9.21-3.65l-25.56.5m40.71 14.02L18 36m9.15-3.63l-25.49.5"/></g></g></symbol><symbol viewBox="0 0 16 14.98" id="like" xmlns="http://www.w3.org/2000/svg"><defs><style>.aycls-1{fill:#333}</style></defs><g id="ayСлой_2" data-name="Слой 2"><path class="aycls-1" d="M2.61 4.78H.52a.52.52 0 0 0-.52.51v9.18a.52.52 0 0 0 .52.53h2.09a.52.52 0 0 0 .52-.51v-9.2a.52.52 0 0 0-.52-.51zm12.08 0h-4l.55-1.47a2.61 2.61 0 0 0-.94-3.1A1.84 1.84 0 0 0 9.09 0a.87.87 0 0 0-.53.39 2.07 2.07 0 0 0-.17.72 3.1 3.1 0 0 1-.88 1.69c-.81.77-3.33 3-3.33 3V14h8.71a1.54 1.54 0 0 0 1.37-2.28 1.52 1.52 0 0 0 .52-2 1.52 1.52 0 0 0 .52-2 1.54 1.54 0 0 0-.6-2.94z" id="ayСлой_1-2" data-name="Слой 1"/></g></symbol><symbol viewBox="0 0 78.12 86.03" id="main" xmlns="http://www.w3.org/2000/svg"><defs><style>.azcls-1{fill:#333}</style></defs><g id="azСлой_2" data-name="Слой 2"><path class="azcls-1" d="M38.88 0a2 2 0 0 0-1.78 2v12a2 2 0 0 0 4 .06V2a2 2 0 0 0-2-2h-.25zM18.94 8a2 2 0 0 0-1.53 3.06l5 8A2 2 0 1 0 25.78 17l-5-8a2 2 0 0 0-1.84-1zM59 8a2 2 0 0 0-1.59 1l-5 8a2 2 0 1 0 3.38 2.13l5-8A2 2 0 0 0 59 8zM2.56 21a2 2 0 0 0-.84 3.75l10.41 6a2 2 0 0 0 2-3.47l-10.41-6A2 2 0 0 0 2.56 21zm72.78 0a2 2 0 0 0-.87.28l-10.41 6a2 2 0 1 0 2 3.47l10.41-6A2 2 0 0 0 75.35 21zM39.1 22c-12.15 0-22 9.43-22 21 0 11.34 10.43 18 11.84 27h8.16V47.47a4 4 0 0 1-2-3.44 4 4 0 0 1 8 0 4 4 0 0 1-2 3.44V70h8.16c1.41-9 11.84-15.62 11.84-27 0-11.54-9.85-21-22-21zM1.91 42a2 2 0 1 0 .19 4h7a2 2 0 0 0 .06-4H1.91zm67 0a2 2 0 1 0 .19 4h7a2 2 0 0 0 .06-4h-7.25zM13 57a2 2 0 0 0-.87.28l-10.41 6a2 2 0 0 0 2 3.47l10.41-6A2 2 0 0 0 13 57zm51.94 0a2 2 0 0 0-.87 3.75l10.41 6a2 2 0 0 0 2-3.47l-10.41-6a2 2 0 0 0-1.13-.28zM29.1 74v8a4 4 0 0 0 4 4h12a4 4 0 0 0 4-4v-8z" id="azСлой_1-2" data-name="Слой 1"/></g></symbol><symbol viewBox="0 0 7.99 8.99" id="min_arrow" xmlns="http://www.w3.org/2000/svg"><defs><style>.bacls-1{fill:#3e3d67}</style></defs><g id="baСлой_2" data-name="Слой 2"><path class="bacls-1" d="M8 4.49L0 9V0z" id="baСлой_1-2" data-name="Слой 1"/></g></symbol><symbol viewBox="0 0 24 24" id="plitka" xmlns="http://www.w3.org/2000/svg"><path class="bbcls-2" d="M0 13.33h10.67V24H0zM13.33 24H24V13.33H13.33zM0 10.67h10.67V0H0zM13.33 0v10.67H24V0z"/></symbol><symbol viewBox="0 0 20 20" id="pochta" xmlns="http://www.w3.org/2000/svg"><path class="bccls-2" d="M10 0a10 10 0 1 0 10 10A10 10 0 0 0 10 0zM4.59 13.06a.08.08 0 0 1-.11-.06V8.23a.14.14 0 0 1 .11 0L7.74 10v.06a.09.09 0 0 1 0 .06L4.63 13s-.02.06-.04.06zM15 14.48H4.68a.1.1 0 0 1 0-.15l4-3.7h.1l1 .59a.44.44 0 0 0 .46 0l1.2-.69h.11l3.57 3.83a.16.16 0 0 1 0 .11.13.13 0 0 1-.12.01zm.48-1.28l-.06.08a.11.11 0 0 1-.06 0l-3-3.2v-.13l3-1.76h.09s.06.06.06.09zm0-6.2a.08.08 0 0 1-.09.09h-.13l-5.24 3.09h-.07L4.54 7.13s-.07 0-.07-.09V5.89a.34.34 0 0 1 .11-.27.37.37 0 0 1 .26-.1h10.31a.37.37 0 0 1 .26.1.34.34 0 0 1 .11.27z"/></symbol><symbol viewBox="0 0 40 36" id="podarki" xmlns="http://www.w3.org/2000/svg"><defs><style>.bdcls-1{fill:#fcb22d}</style></defs><g id="bdСлой_2" data-name="Слой 2"><path class="bdcls-1" d="M20 14.09a.78.78 0 1 0-.78-.78.78.78 0 0 0 .78.78zm17.66-4.7h-2.9A5.48 5.48 0 0 0 30.94 0c-3.56 0-4.9 2.74-6.4 5.88-.26.53-.51 1.07-.79 1.62a3.9 3.9 0 0 0-7.49 0c-.26-.5-.54-1.09-.8-1.62C14 2.81 12.66 0 9.06 0a5.48 5.48 0 0 0-3.82 9.39h-2.9A2.35 2.35 0 0 0 0 11.74v4.7a.78.78 0 0 0 .78.78h4.38v16.43A2.35 2.35 0 0 0 7.5 36h25a2.35 2.35 0 0 0 2.34-2.35V17.22h4.38a.78.78 0 0 0 .78-.78v-4.7a2.35 2.35 0 0 0-2.34-2.35zM5.16 5.48a3.91 3.91 0 0 1 3.9-3.91c2.48 0 3.42 1.71 5 5 .42.88.89 1.85 1.44 2.84H9.06a3.91 3.91 0 0 1-3.9-3.93zm10.94 29H7.5a.78.78 0 0 1-.78-.78V17.22h9.38zm0-18.78H1.56v-3.96a.78.78 0 0 1 .78-.74h13.75zm6.25 18.78h-4.69V11h4.69zm0-25h-4.69v-.87a2.34 2.34 0 1 1 4.69 0zm3.6-2.84c1.57-3.28 2.51-5 5-5a3.91 3.91 0 0 1 0 7.83H24.5c.56-1.06 1.02-2.03 1.44-2.92zm7.34 27.1a.78.78 0 0 1-.78.78h-8.6v-17.3h9.38zm5.16-18H23.91V11h13.75a.78.78 0 0 1 .78.78zM20 25a.78.78 0 0 0 .78-.78v-7.79a.78.78 0 1 0-1.56 0v7.83A.78.78 0 0 0 20 25z" id="bdСлой_1-2" data-name="Слой 1"/></g></symbol><symbol viewBox="0 0 33 33" id="postavshiki" xmlns="http://www.w3.org/2000/svg"><defs><style>.becls-1{fill:#fcb22d}</style></defs><g id="beСлой_2" data-name="Слой 2"><path class="becls-1" d="M22.88 27.65a.64.64 0 0 0 .23 0L29.94 25a.69.69 0 0 0 .39-.88.65.65 0 0 0-.84-.4l-6.84 2.62a.69.69 0 0 0-.39.88.66.66 0 0 0 .62.43zm-2.17.83a.64.64 0 0 0 .23 0l.29-.11a.69.69 0 0 0 .39-.88.65.65 0 0 0-.84-.4l-.29.11a.69.69 0 0 0-.39.88.66.66 0 0 0 .61.4zm3.6-4.16a.63.63 0 0 0 .23 0l5.4-2.07a.69.69 0 0 0 .39-.88.65.65 0 0 0-.84-.4L24.08 23a.69.69 0 0 0-.39.88.66.66 0 0 0 .62.44zm0-2.75a.64.64 0 0 0 .23 0l5.4-2.07a.69.69 0 0 0 .39-.88.65.65 0 0 0-.84-.4l-5.4 2.07a.69.69 0 0 0-.39.88.66.66 0 0 0 .61.4zm8.26-15.46L16.73 0a.64.64 0 0 0-.46 0L.43 6.11l-.15.08a.69.69 0 0 0-.28.56v19.5a.68.68 0 0 0 .43.64L16.27 33a.64.64 0 0 0 .45 0l15.84-6.06a.68.68 0 0 0 .43-.64V6.75a.68.68 0 0 0-.42-.64zM15.84 31.34L1.31 25.78V7.72l3 1.13v8.26a.68.68 0 0 0 .43.64l7.1 2.72a.64.64 0 0 0 .6-.08.69.69 0 0 0 .28-.56v-7.75l3.16 1.21zm-4.47-19.77v7.28l-5.78-2.21V9.36zM6.83 8.38l5.2-2 5.2 2-5.2 2zm9.67 3.71l-2.58-1L19.36 9a.69.69 0 0 0 0-1.28L12.26 5a.63.63 0 0 0-.46 0L4.92 7.65l-2.36-.9L16.5 1.41l13.94 5.34zm15.19 13.7l-14.53 5.55V13.28l14.53-5.56z" id="beСлой_1-2" data-name="Слой 1"/></g></symbol><symbol viewBox="0 0 20 20" id="priem" xmlns="http://www.w3.org/2000/svg"><path class="bfcls-1" d="M10 0H0v10A10.07 10.07 0 0 1 10 0zm0 20h10V10a9.93 9.93 0 0 1-10 10zM0 10v10h10A10 10 0 0 1 0 10zM10 0a10 10 0 0 1 10 10V0z"/><path class="bfcls-2" d="M10 0a10 10 0 1 0 0 20 10 10 0 0 0 0-20zm3.18 13.22a.47.47 0 0 1-.75 0l-2.81-2.84h-.08v-.17h-.08v-6A.57.57 0 0 1 10 3.6a.56.56 0 0 1 .5.59v5.6l2.68 2.68a.47.47 0 0 1 .04.75z"/></symbol><symbol viewBox="0 0 42 44" id="prozhectori" xmlns="http://www.w3.org/2000/svg"><path class="bgcls-2" d="M18.72 0a3.25 3.25 0 0 0-2.14.77 3 3 0 0 0-1 2.3V13l-7.23-2.18a.52.52 0 0 0-.39 0 .51.51 0 0 0-.25.3l-1 3.22-.71-.18a4.08 4.08 0 0 0-5 2.74l-.83 2.53a4 4 0 0 0 2.69 5l.76.23-1 3.22a.51.51 0 0 0 0 .39.51.51 0 0 0 .31.25L24.54 35l7.86 8.85a.52.52 0 0 0 .74 0 .51.51 0 0 0 .14-.23L42 14.78a.51.51 0 0 0-.12-.5.52.52 0 0 0-.5-.14l-11.46 3.1-8-2.4V3.07a3 3 0 0 0-1-2.3 3.25 3.25 0 0 0-2.2-.77zm0 1a2.24 2.24 0 0 1 1.46.51 1.91 1.91 0 0 1 .64 1.53v14.65a5 5 0 0 0-4.2 0V3.07a1.91 1.91 0 0 1 .64-1.53A2.24 2.24 0 0 1 18.72 1zM8.55 12l7 2.1v4.28a5 5 0 1 0 6.26 0v-2.47l7.39 2.2-4.72 15.78-20.69-6.16zm-3.76 3a3 3 0 0 1 .89.12l.76.22-2.51 8.39-.76-.23a3 3 0 0 1-2-3.77l.76-2.53A3.05 3.05 0 0 1 4.79 15zm35.94.35l-8.17 27.11-7.16-8.06 4.89-16.21zm-22 2.89a4 4 0 0 1 2.16.64 4 4 0 1 1-4.36 0 3.94 3.94 0 0 1 2.19-.66z"/><path class="bgcls-2" d="M7.26 25.77a.52.52 0 0 0-.34.12.51.51 0 0 0 .2.88l6.09 1.82a.52.52 0 0 0 .4 0 .51.51 0 0 0 .25-.31.51.51 0 0 0-.17-.55.52.52 0 0 0-.18-.09l-6.1-1.85h-.15zM8 23.15a.52.52 0 0 0-.34.12.51.51 0 0 0 .2.88l3.21 1a.52.52 0 0 0 .4 0 .51.51 0 0 0 .16-.13.51.51 0 0 0-.08-.73.52.52 0 0 0-.18-.09l-3.21-1h-.15z"/></symbol><symbol viewBox="0 0 21 19" id="reload" xmlns="http://www.w3.org/2000/svg"><defs><style>.bhcls-1{fill:#3e3d67}</style></defs><g id="bhСлой_2" data-name="Слой 2"><path class="bhcls-1" d="M20.77 5.91A.53.53 0 0 0 20 6l-1.31 2a9.45 9.45 0 0 0-9.28-8 9.5 9.5 0 0 0 0 19 9.44 9.44 0 0 0 8.12-4.69.55.55 0 0 0-.19-.74.54.54 0 0 0-.74.19 8.44 8.44 0 1 1 1.08-5.25L15.19 7a.53.53 0 0 0-.74.19.55.55 0 0 0 .19.74L18 10a.49.49 0 0 0 .48 0h.05a.53.53 0 0 0 .13-.12l2.24-3.22a.55.55 0 0 0-.13-.75z" id="bhСлой_1-2" data-name="Слой 1"/></g></symbol><symbol viewBox="0 0 20 14" id="right" xmlns="http://www.w3.org/2000/svg"><path class="bicls-2" d="M20 7a.92.92 0 0 1-.19.48l-5.56 6.26a.73.73 0 0 1-1 .06.72.72 0 0 1-.06-1l4.48-5H.74a.74.74 0 1 1 0-1.47h16.89l-4.48-5a.71.71 0 0 1 .1-1 .7.7 0 0 1 1 .07l5.56 6.26A.72.72 0 0 1 20 7z"/></symbol><symbol viewBox="0 0 84.1 59.6" id="russia" xmlns="http://www.w3.org/2000/svg"><defs><style>.bjcls-1{fill:#fff}</style></defs><g id="bjСлой_2" data-name="Слой 2"><g id="bjСлой_1-2" data-name="Слой 1"><path class="bjcls-1" d="M9.1 26.8l3.1-1.5 4.9-7.2 1.5-.6 1.6 7.3-2.1.3-1.6-3-1.2 4.7h5.3l5.5 1.4 2.2-1.4 3.7 3.8 1.6-7 2.6 2.6 1.6-2.2 2.6-.7 3.8-3.5.6-1.7 3.1.5 1.3 1.7-2.3 4.8 5.7-2.9v-1.4l2.2-.5 2.4 2.4 2.4-2.9v-2l3.9-2.7 1.6-2.3h2.5L72 3.9 75.8 0l1.4 2.2L75 5l.8 1.8 2.1.4 1.7 7.4v6.2l3 4.1 1.5 5.7-5.2-3.3-2.3-9.5-1.4.3-.2 6.4-3.8 6.1-1.1 9.3 2.6.6 1.1-1.3 2.5 2.8 1.9 8.4-.2 5.4h-2.4l-.9-7.6-1.7 2.3-3.7-.8-3-2.5-3.4 1.2.2 5.4-2.7.7-4 3-4.8-.6-1.9-1.1-3 .5 1 1.2-2.4 1.4-1.9-.9-3.6 1.6-5.5-2.7-2.1-4.8-1.8.2-2.1-1.7-.1-1.3-6.7-.7-1.1 3.6-4.2-1.9-2.1-3.5H9.6l-.5 5.6-2.6.8-1.3 5.1-1-.9L0 46.7l5-2.4-.8-4.7-.8-4.8 2.2-3.1-.7-1.9 3-3.2 1.2.2z"/><path class="bjcls-1" d="M75.6 38.6l4.6 6.8 1.5-.6-1.9-2.8-4.2-4.4v1zm-47-13.8v-2l3.5-2.5 3-1.5h-3.5l-3.1 1.8-1.9 1.7v2.5h2z"/></g></g></symbol><symbol viewBox="0 0 22 20" id="sravnenie" xmlns="http://www.w3.org/2000/svg"><path class="bkcls-2" d="M10.95 0a.49.49 0 0 0-.32.18.54.54 0 0 0-.12.36v1a5 5 0 0 1-3 1.06 9.67 9.67 0 0 1-3.69-.7.67.67 0 0 0-.38-.09.51.51 0 0 0-.44.35L0 9.53a.7.7 0 0 0 0 .31 3.58 3.58 0 0 0 3.5 3.58A3.6 3.6 0 0 0 7 9.84a.82.82 0 0 0 0-.31L4.4 3.26a10.81 10.81 0 0 0 3.09.44 5.76 5.76 0 0 0 3-.87v14h-5V20h11v-3.16h-5v-14a5.76 5.76 0 0 0 3 .87 10.81 10.81 0 0 0 3.09-.44L15 9.53a.82.82 0 0 0 0 .31 3.6 3.6 0 0 0 3.49 3.58A3.58 3.58 0 0 0 22 9.84a.7.7 0 0 0 0-.31l-3-7.37a.51.51 0 0 0-.39-.31.67.67 0 0 0-.38.09 9.67 9.67 0 0 1-3.69.7 5 5 0 0 1-3-1.06v-1a.55.55 0 0 0 0-.22.53.53 0 0 0-.12-.18.5.5 0 0 0-.26-.18.48.48 0 0 0-.21 0zM3.5 3.72l2.24 5.5H1.25zm15 0l2.24 5.5h-4.48z"/></symbol><symbol viewBox="0 0 62 62" id="sroki" xmlns="http://www.w3.org/2000/svg"><defs><style>.blcls-1{fill:#c2c2c2}</style></defs><g id="blСлой_2" data-name="Слой 2"><path class="blcls-1" d="M31 0A31 31 0 1 1 0 31 31 31 0 0 1 31 0zm0 12a2 2 0 0 0-2 2v15.84l-12 6.94a2 2 0 0 0 2 3.44l13-7.5A2 2 0 0 0 33 31V14a2 2 0 0 0-2-2z" id="blСлой_1-2" data-name="Слой 1"/></g></symbol><symbol viewBox="0 0 49.94 49.94" id="star" xmlns="http://www.w3.org/2000/svg"><path d="M48.856 22.73a3.56 3.56 0 0 0 .906-3.671 3.56 3.56 0 0 0-2.892-2.438l-12.092-1.757a1.58 1.58 0 0 1-1.19-.865L28.182 3.043a3.56 3.56 0 0 0-3.212-1.996 3.56 3.56 0 0 0-3.211 1.996L16.352 14c-.23.467-.676.79-1.191.865L3.069 16.622A3.56 3.56 0 0 0 .177 19.06a3.56 3.56 0 0 0 .906 3.671l8.749 8.528c.373.364.544.888.456 1.4L8.224 44.701a3.506 3.506 0 0 0 .781 2.904c1.066 1.267 2.927 1.653 4.415.871l10.814-5.686a1.619 1.619 0 0 1 1.472 0l10.815 5.686a3.544 3.544 0 0 0 1.666.417c1.057 0 2.059-.47 2.748-1.288a3.505 3.505 0 0 0 .781-2.904l-2.065-12.042a1.582 1.582 0 0 1 .456-1.4l8.749-8.529z"/></symbol><symbol viewBox="0 0 19.99 19" id="star1" xmlns="http://www.w3.org/2000/svg"><defs><style>.bncls-1{fill:#fcb22d}</style></defs><g id="bnСлой_2" data-name="Слой 2"><path class="bncls-1" d="M19.55 8.61a1.41 1.41 0 0 0 .36-1.46 1.42 1.42 0 0 0-1.16-1l-4.84-.7a.63.63 0 0 1-.48-.34L11.28.79a1.44 1.44 0 0 0-2.57 0L6.54 5.14a.63.63 0 0 1-.48.34l-4.84.7a1.42 1.42 0 0 0-1.16 1 1.41 1.41 0 0 0 .37 1.43L3.94 12a.62.62 0 0 1 .18.56l-.83 4.78a1.38 1.38 0 0 0 .31 1.15 1.46 1.46 0 0 0 1.77.35l4.33-2.27a.65.65 0 0 1 .59 0l4.33 2.26a1.43 1.43 0 0 0 1.77-.35 1.38 1.38 0 0 0 .31-1.15l-.83-4.78a.62.62 0 0 1 .18-.56z" id="bnСлой_1-2" data-name="Слой 1"/></g></symbol><symbol viewBox="0 0 24 24" id="stroka" xmlns="http://www.w3.org/2000/svg"><path class="bocls-2" d="M24 5.33a.61.61 0 0 1-.53.67H.53A.61.61 0 0 1 0 5.33V.67A.61.61 0 0 1 .53 0h22.94a.61.61 0 0 1 .53.67zm0 9a.61.61 0 0 1-.53.67H.53a.61.61 0 0 1-.53-.67V9.67A.61.61 0 0 1 .53 9h22.94a.61.61 0 0 1 .53.67zm0 9a.61.61 0 0 1-.53.67H.53a.61.61 0 0 1-.53-.67v-4.66A.61.61 0 0 1 .53 18h22.94a.61.61 0 0 1 .53.67z"/></symbol><symbol viewBox="0 0 43 46" id="svetilniki" xmlns="http://www.w3.org/2000/svg"><path d="M.5.5h42v45H.5V.5z"/><rect x="6.5" y="5.5" width="6" height="35" rx=".5"/><path d="M7 7.5h5m-5 31h5"/><circle cx="10.5" cy="9.5" r=".5"/><circle cx="10.5" cy="11.5" r=".5"/><circle cx="10.5" cy="13.5" r=".5"/><circle cx="10.5" cy="15.5" r=".5"/><circle cx="10.5" cy="17.5" r=".5"/><circle cx="10.5" cy="19.5" r=".5"/><circle cx="10.5" cy="21.5" r=".5"/><circle cx="10.5" cy="24.5" r=".5"/><circle cx="10.5" cy="26.5" r=".5"/><circle cx="10.5" cy="28.5" r=".5"/><circle cx="10.5" cy="30.5" r=".5"/><circle cx="10.5" cy="32.5" r=".5"/><circle cx="10.5" cy="34.5" r=".5"/><circle cx="10.5" cy="36.5" r=".5"/><circle cx="8.5" cy="9.5" r=".5"/><circle cx="8.5" cy="11.5" r=".5"/><circle cx="8.5" cy="13.5" r=".5"/><circle cx="8.5" cy="15.5" r=".5"/><circle cx="8.5" cy="17.5" r=".5"/><circle cx="8.5" cy="19.5" r=".5"/><circle cx="8.5" cy="21.5" r=".5"/><circle cx="8.5" cy="24.5" r=".5"/><circle cx="8.5" cy="26.5" r=".5"/><circle cx="8.5" cy="28.5" r=".5"/><circle cx="8.5" cy="30.5" r=".5"/><circle cx="8.5" cy="32.5" r=".5"/><circle cx="8.5" cy="34.5" r=".5"/><circle cx="8.5" cy="36.5" r=".5"/><rect x="18.5" y="5.5" width="6" height="35" rx=".5"/><path d="M19 7.5h5m-5 31h5"/><circle cx="22.5" cy="9.5" r=".5"/><circle cx="22.5" cy="11.5" r=".5"/><circle cx="22.5" cy="13.5" r=".5"/><circle cx="22.5" cy="15.5" r=".5"/><circle cx="22.5" cy="17.5" r=".5"/><circle cx="22.5" cy="19.5" r=".5"/><circle cx="22.5" cy="21.5" r=".5"/><circle cx="22.5" cy="24.5" r=".5"/><circle cx="22.5" cy="26.5" r=".5"/><circle cx="22.5" cy="28.5" r=".5"/><circle cx="22.5" cy="30.5" r=".5"/><circle cx="22.5" cy="32.5" r=".5"/><circle cx="22.5" cy="34.5" r=".5"/><circle cx="22.5" cy="36.5" r=".5"/><circle cx="20.5" cy="9.5" r=".5"/><circle cx="20.5" cy="11.5" r=".5"/><circle cx="20.5" cy="13.5" r=".5"/><circle cx="20.5" cy="15.5" r=".5"/><circle cx="20.5" cy="17.5" r=".5"/><circle cx="20.5" cy="19.5" r=".5"/><circle cx="20.5" cy="21.5" r=".5"/><circle cx="20.5" cy="24.5" r=".5"/><circle cx="20.5" cy="26.5" r=".5"/><circle cx="20.5" cy="28.5" r=".5"/><circle cx="20.5" cy="30.5" r=".5"/><circle cx="20.5" cy="32.5" r=".5"/><circle cx="20.5" cy="34.5" r=".5"/><circle cx="20.5" cy="36.5" r=".5"/><rect x="30.5" y="5.5" width="6" height="35" rx=".5"/><path d="M31 7.5h5m-5 31h5"/><circle cx="34.5" cy="9.5" r=".5"/><circle cx="34.5" cy="11.5" r=".5"/><circle cx="34.5" cy="13.5" r=".5"/><circle cx="34.5" cy="15.5" r=".5"/><circle cx="34.5" cy="17.5" r=".5"/><circle cx="34.5" cy="19.5" r=".5"/><circle cx="34.5" cy="21.5" r=".5"/><circle cx="34.5" cy="24.5" r=".5"/><circle cx="34.5" cy="26.5" r=".5"/><circle cx="34.5" cy="28.5" r=".5"/><circle cx="34.5" cy="30.5" r=".5"/><circle cx="34.5" cy="32.5" r=".5"/><circle cx="34.5" cy="34.5" r=".5"/><circle cx="34.5" cy="36.5" r=".5"/><circle cx="32.5" cy="9.5" r=".5"/><circle cx="32.5" cy="11.5" r=".5"/><circle cx="32.5" cy="13.5" r=".5"/><circle cx="32.5" cy="15.5" r=".5"/><circle cx="32.5" cy="17.5" r=".5"/><circle cx="32.5" cy="19.5" r=".5"/><circle cx="32.5" cy="21.5" r=".5"/><circle cx="32.5" cy="24.5" r=".5"/><circle cx="32.5" cy="26.5" r=".5"/><circle cx="32.5" cy="28.5" r=".5"/><circle cx="32.5" cy="30.5" r=".5"/><circle cx="32.5" cy="32.5" r=".5"/><circle cx="32.5" cy="34.5" r=".5"/><circle cx="32.5" cy="36.5" r=".5"/></symbol><symbol viewBox="0 0 20 20" id="tel" xmlns="http://www.w3.org/2000/svg"><path class="bqcls-2" d="M10 0a10 10 0 1 0 10 10A10 10 0 0 0 10 0zm5.37 14.67l-.81.81a1.55 1.55 0 0 1-.59.24A9.61 9.61 0 0 1 4.28 6a1.56 1.56 0 0 1 .23-.56l.82-.81a1.35 1.35 0 0 1 1.27-.3l.17.05a1.62 1.62 0 0 1 .93 1l.41 1.5a1.49 1.49 0 0 1-.34 1.29l-.54.54a5.77 5.77 0 0 0 4.06 4.06l.55-.54a1.46 1.46 0 0 1 1.29-.34l1.51.41a1.6 1.6 0 0 1 1 .93l.06.17a1.36 1.36 0 0 1-.33 1.27z"/></symbol><symbol viewBox="0 0 18 18" id="voskl" xmlns="http://www.w3.org/2000/svg"><defs><style>.brcls-1{fill:#fcb22d}</style></defs><g id="brСлой_2" data-name="Слой 2"><path class="brcls-1" d="M9 0a9 9 0 1 0 9 9 9 9 0 0 0-9-9zm1 14H8v-2h2zm0-4H8V4h2z" id="brСлой_1-2" data-name="Слой 1"/></g></symbol></svg>