<svg xmlns="http://www.w3.org/2000/svg" viewBox="0 0 22 20">
      <path class="cls-2" d="M10.95,0a.49.49,0,0,0-.32.18.54.54,0,0,0-.12.36v1a5,5,0,0,1-3,1.06,9.67,9.67,0,0,1-3.69-.7.67.67,0,0,0-.38-.09A.51.51,0,0,0,3,2.16L0,9.53a.7.7,0,0,0,0,.31A3.58,3.58,0,0,0,3.5,13.42,3.6,3.6,0,0,0,7,9.84a.82.82,0,0,0,0-.31L4.4,3.26a10.81,10.81,0,0,0,3.09.44,5.76,5.76,0,0,0,3-.87v14h-5V20h11V16.84h-5v-14a5.76,5.76,0,0,0,3,.87,10.81,10.81,0,0,0,3.09-.44L15,9.53a.82.82,0,0,0,0,.31,3.6,3.6,0,0,0,3.49,3.58A3.58,3.58,0,0,0,22,9.84a.7.7,0,0,0,0-.31L19,2.16a.51.51,0,0,0-.39-.31.67.67,0,0,0-.38.09,9.67,9.67,0,0,1-3.69.7,5,5,0,0,1-3-1.06v-1a.55.55,0,0,0,0-.22.53.53,0,0,0-.12-.18A.5.5,0,0,0,11.16,0,.48.48,0,0,0,10.95,0ZM3.5,3.72l2.24,5.5H1.25Zm15,0,2.24,5.5H16.26Z"/>

</svg>
