<svg xmlns="http://www.w3.org/2000/svg" viewBox="0 0 19.99 19">
  <defs>
    <style>
      .cls-1 {
        fill: #fcb22d;
      }
    </style>
  </defs>
  <title>Ресурс 15</title>
  <g id="Слой_2" data-name="Слой 2">
    <g id="Слой_1-2" data-name="Слой 1">
      <path class="cls-1" d="M19.55,8.61a1.41,1.41,0,0,0,.36-1.46,1.42,1.42,0,0,0-1.16-1l-4.84-.7a.63.63,0,0,1-.48-.34L11.28.79a1.44,1.44,0,0,0-2.57,0L6.54,5.14a.63.63,0,0,1-.48.34l-4.84.7a1.42,1.42,0,0,0-1.16,1A1.41,1.41,0,0,0,.43,8.61L3.94,12a.62.62,0,0,1,.18.56l-.83,4.78a1.38,1.38,0,0,0,.31,1.15,1.46,1.46,0,0,0,1.77.35L9.7,16.57a.65.65,0,0,1,.59,0l4.33,2.26a1.43,1.43,0,0,0,1.77-.35,1.38,1.38,0,0,0,.31-1.15l-.83-4.78a.62.62,0,0,1,.18-.56Z"/>
    </g>
  </g>
</svg>
