<svg width="43" height="46" viewBox="0 0 43 46" fill="none" xmlns="http://www.w3.org/2000/svg">
<path d="M0.5 0.5H42.5V45.5H0.5V0.5Z" stroke="white"/>
<rect x="6.5" y="5.5" width="6" height="35" rx="0.5" stroke="white"/>
<line x1="7" y1="7.5" x2="12" y2="7.5" stroke="white"/>
<line x1="7" y1="38.5" x2="12" y2="38.5" stroke="white"/>
<circle cx="10.5" cy="9.5" r="0.5" fill="white"/>
<circle cx="10.5" cy="11.5" r="0.5" fill="white"/>
<circle cx="10.5" cy="13.5" r="0.5" fill="white"/>
<circle cx="10.5" cy="15.5" r="0.5" fill="white"/>
<circle cx="10.5" cy="17.5" r="0.5" fill="white"/>
<circle cx="10.5" cy="19.5" r="0.5" fill="white"/>
<circle cx="10.5" cy="21.5" r="0.5" fill="white"/>
<circle cx="10.5" cy="24.5" r="0.5" fill="white"/>
<circle cx="10.5" cy="26.5" r="0.5" fill="white"/>
<circle cx="10.5" cy="28.5" r="0.5" fill="white"/>
<circle cx="10.5" cy="30.5" r="0.5" fill="white"/>
<circle cx="10.5" cy="32.5" r="0.5" fill="white"/>
<circle cx="10.5" cy="34.5" r="0.5" fill="white"/>
<circle cx="10.5" cy="36.5" r="0.5" fill="white"/>
<circle cx="8.5" cy="9.5" r="0.5" fill="white"/>
<circle cx="8.5" cy="11.5" r="0.5" fill="white"/>
<circle cx="8.5" cy="13.5" r="0.5" fill="white"/>
<circle cx="8.5" cy="15.5" r="0.5" fill="white"/>
<circle cx="8.5" cy="17.5" r="0.5" fill="white"/>
<circle cx="8.5" cy="19.5" r="0.5" fill="white"/>
<circle cx="8.5" cy="21.5" r="0.5" fill="white"/>
<circle cx="8.5" cy="24.5" r="0.5" fill="white"/>
<circle cx="8.5" cy="26.5" r="0.5" fill="white"/>
<circle cx="8.5" cy="28.5" r="0.5" fill="white"/>
<circle cx="8.5" cy="30.5" r="0.5" fill="white"/>
<circle cx="8.5" cy="32.5" r="0.5" fill="white"/>
<circle cx="8.5" cy="34.5" r="0.5" fill="white"/>
<circle cx="8.5" cy="36.5" r="0.5" fill="white"/>
<rect x="18.5" y="5.5" width="6" height="35" rx="0.5" stroke="white"/>
<line x1="19" y1="7.5" x2="24" y2="7.5" stroke="white"/>
<line x1="19" y1="38.5" x2="24" y2="38.5" stroke="white"/>
<circle cx="22.5" cy="9.5" r="0.5" fill="white"/>
<circle cx="22.5" cy="11.5" r="0.5" fill="white"/>
<circle cx="22.5" cy="13.5" r="0.5" fill="white"/>
<circle cx="22.5" cy="15.5" r="0.5" fill="white"/>
<circle cx="22.5" cy="17.5" r="0.5" fill="white"/>
<circle cx="22.5" cy="19.5" r="0.5" fill="white"/>
<circle cx="22.5" cy="21.5" r="0.5" fill="white"/>
<circle cx="22.5" cy="24.5" r="0.5" fill="white"/>
<circle cx="22.5" cy="26.5" r="0.5" fill="white"/>
<circle cx="22.5" cy="28.5" r="0.5" fill="white"/>
<circle cx="22.5" cy="30.5" r="0.5" fill="white"/>
<circle cx="22.5" cy="32.5" r="0.5" fill="white"/>
<circle cx="22.5" cy="34.5" r="0.5" fill="white"/>
<circle cx="22.5" cy="36.5" r="0.5" fill="white"/>
<circle cx="20.5" cy="9.5" r="0.5" fill="white"/>
<circle cx="20.5" cy="11.5" r="0.5" fill="white"/>
<circle cx="20.5" cy="13.5" r="0.5" fill="white"/>
<circle cx="20.5" cy="15.5" r="0.5" fill="white"/>
<circle cx="20.5" cy="17.5" r="0.5" fill="white"/>
<circle cx="20.5" cy="19.5" r="0.5" fill="white"/>
<circle cx="20.5" cy="21.5" r="0.5" fill="white"/>
<circle cx="20.5" cy="24.5" r="0.5" fill="white"/>
<circle cx="20.5" cy="26.5" r="0.5" fill="white"/>
<circle cx="20.5" cy="28.5" r="0.5" fill="white"/>
<circle cx="20.5" cy="30.5" r="0.5" fill="white"/>
<circle cx="20.5" cy="32.5" r="0.5" fill="white"/>
<circle cx="20.5" cy="34.5" r="0.5" fill="white"/>
<circle cx="20.5" cy="36.5" r="0.5" fill="white"/>
<rect x="30.5" y="5.5" width="6" height="35" rx="0.5" stroke="white"/>
<line x1="31" y1="7.5" x2="36" y2="7.5" stroke="white"/>
<line x1="31" y1="38.5" x2="36" y2="38.5" stroke="white"/>
<circle cx="34.5" cy="9.5" r="0.5" fill="white"/>
<circle cx="34.5" cy="11.5" r="0.5" fill="white"/>
<circle cx="34.5" cy="13.5" r="0.5" fill="white"/>
<circle cx="34.5" cy="15.5" r="0.5" fill="white"/>
<circle cx="34.5" cy="17.5" r="0.5" fill="white"/>
<circle cx="34.5" cy="19.5" r="0.5" fill="white"/>
<circle cx="34.5" cy="21.5" r="0.5" fill="white"/>
<circle cx="34.5" cy="24.5" r="0.5" fill="white"/>
<circle cx="34.5" cy="26.5" r="0.5" fill="white"/>
<circle cx="34.5" cy="28.5" r="0.5" fill="white"/>
<circle cx="34.5" cy="30.5" r="0.5" fill="white"/>
<circle cx="34.5" cy="32.5" r="0.5" fill="white"/>
<circle cx="34.5" cy="34.5" r="0.5" fill="white"/>
<circle cx="34.5" cy="36.5" r="0.5" fill="white"/>
<circle cx="32.5" cy="9.5" r="0.5" fill="white"/>
<circle cx="32.5" cy="11.5" r="0.5" fill="white"/>
<circle cx="32.5" cy="13.5" r="0.5" fill="white"/>
<circle cx="32.5" cy="15.5" r="0.5" fill="white"/>
<circle cx="32.5" cy="17.5" r="0.5" fill="white"/>
<circle cx="32.5" cy="19.5" r="0.5" fill="white"/>
<circle cx="32.5" cy="21.5" r="0.5" fill="white"/>
<circle cx="32.5" cy="24.5" r="0.5" fill="white"/>
<circle cx="32.5" cy="26.5" r="0.5" fill="white"/>
<circle cx="32.5" cy="28.5" r="0.5" fill="white"/>
<circle cx="32.5" cy="30.5" r="0.5" fill="white"/>
<circle cx="32.5" cy="32.5" r="0.5" fill="white"/>
<circle cx="32.5" cy="34.5" r="0.5" fill="white"/>
<circle cx="32.5" cy="36.5" r="0.5" fill="white"/>
</svg>
